<svg width="113" height="202" viewBox="0 0 113 202" fill="none" xmlns="http://www.w3.org/2000/svg">
<path d="M0 12C0 5.37258 5.37258 0 12 0H56.4095H100.819C107.446 0 112.819 5.37258 112.819 12V173.388V188.683C112.819 195.31 107.446 200.683 100.819 200.683H12C5.37259 200.683 0 195.31 0 188.683V100.341V12Z" fill="#D6FFDA"/>
<path d="M0 112.617V191.136C0 196.724 3.96756 201.898 9.48356 201.005C16.5435 199.861 23.6556 195.195 23.6556 182.486C23.6556 179.176 29.5794 138.514 30.0484 135.238C30.8251 129.813 32.5079 124.489 34.5735 120.358C39.0645 111.376 30.5513 103.527 22.8398 99.0427C19.5979 97.1577 14.9912 98.3028 11.4204 99.4482C5.29166 101.414 0 106.181 0 112.617Z" fill="#FFD6D6"/>
<path d="M53.5072 0H12C5.37258 0 0 5.37258 0 12V90.1304C0 96.0164 4.42971 101.289 10.1297 99.8207C15.7857 98.3641 21.5407 94.65 23.6556 86.5638C28.0748 69.667 21.0561 63.6881 28.8546 53.8099C36.6532 43.9318 60.8286 53.0301 72.7864 33.7937C81.5434 19.7064 68.4592 7.15847 58.9378 1.4141C57.3047 0.428803 55.4145 0 53.5072 0Z" fill="#FF6161"/>
<path d="M23.6556 86.5637C28.0748 69.6669 21.0561 63.688 28.8546 53.8099C30.6743 51.505 31.5206 47.3111 40.2925 47.3111C45.486 47.3111 36.6617 53.881 41.8806 54.3795C58.1754 55.9362 76.6555 60.9916 72.7864 73.5662C66.5476 93.8424 66.8075 126.076 85.0041 125.297C98.9275 124.7 108.729 109.787 112.361 101.439C112.676 100.714 112.819 99.9355 112.819 99.1457V165.851C112.819 170.459 110.187 174.701 105.792 176.086C99.6167 178.033 91.0621 179.806 82.6646 179.106C67.0675 177.807 69.667 159.61 47.3112 160.91C24.9553 162.21 27.5549 134.395 34.5735 120.357C38.1335 113.237 33.5219 106.829 27.6158 102.245C23.4554 99.0158 22.323 91.6589 23.6556 86.5637Z" fill="#89A3FF"/>
<path d="M101.833 -1.52588e-05H98.9064C88.1216 -1.52588e-05 78.4802 24.6343 72.7865 33.7937C67.5368 42.2389 59.9322 45.2228 52.3924 46.7489C42.5089 48.7493 43.9388 54.0278 53.7881 56.1905C65.8335 58.8353 75.716 64.0456 72.7865 73.5662C66.5477 93.8425 66.8076 126.076 85.0042 125.297C98.3839 124.723 107.957 110.93 111.908 102.446C112.549 101.068 112.819 99.5609 112.819 98.0418V10.9859C112.819 4.91854 107.9 -1.52588e-05 101.833 -1.52588e-05Z" fill="#FFE589"/>
</svg>
