<svg width="121" height="208" viewBox="0 0 121 208" fill="none" xmlns="http://www.w3.org/2000/svg">
<g id="card-all">
<g id="card-bkg">
<g id="card-bkg_2" filter="url(#filter0_d)">
<path d="M16 199.751H104.819C111.446 199.751 116.819 194.379 116.819 187.751V12C116.819 5.37258 111.446 0 104.819 0H16C9.37258 0 4 5.37259 4 12V187.751C4 194.379 9.37259 199.751 16 199.751Z" fill="#F9FFF9"/>
</g>
</g>
<g id="rank">
  <g id="as">
    <path d="M29.1673 28.2458C28.8861 27.4445 28.1294 26.9082 27.2802 26.9082H24.6115C23.7604 26.9082 23.0025 27.4469 22.7227 28.2507L22.3158 29.4197C22.1493 29.8981 21.6981 30.2188 21.1915 30.2188C20.3591 30.2188 19.7837 29.3863 20.0779 28.6076L24.4486 17.0372C24.6844 16.413 25.2819 16 25.9491 16C26.616 16 27.2133 16.4126 27.4494 17.0363L31.8255 28.6C32.1215 29.3822 31.5436 30.2188 30.7073 30.2188C30.1997 30.2188 29.7474 29.8982 29.5793 29.4192L29.1673 28.2458ZM24.5629 22.9707C24.2307 23.9217 24.9366 24.916 25.9439 24.916C26.9512 24.916 27.6571 23.9217 27.3249 22.9707C26.8682 21.6636 25.0196 21.6636 24.5629 22.9707Z" fill="#F9FFF9"/>
    <path d="M99.1673 28.2458C98.8861 27.4445 98.1294 26.9082 97.2802 26.9082H94.6115C93.7604 26.9082 93.0025 27.4469 92.7227 28.2507L92.3158 29.4197C92.1493 29.8981 91.6981 30.2188 91.1915 30.2188C90.3591 30.2188 89.7837 29.3863 90.0779 28.6076L94.4486 17.0372C94.6844 16.413 95.2819 16 95.9492 16C96.616 16 97.2133 16.4126 97.4494 17.0363L101.825 28.6C102.121 29.3822 101.544 30.2188 100.707 30.2188C100.2 30.2188 99.7474 29.8982 99.5793 29.4192L99.1673 28.2458ZM94.5629 22.9707C94.2307 23.9217 94.9366 24.916 95.9439 24.916C96.9512 24.916 97.6571 23.9217 97.3249 22.9707C96.8682 21.6636 95.0196 21.6636 94.5629 22.9707Z" fill="#F9FFF9"/>
    <path d="M99.1673 182.246C98.8861 181.444 98.1294 180.908 97.2802 180.908H94.6115C93.7604 180.908 93.0025 181.447 92.7227 182.251L92.3158 183.42C92.1493 183.898 91.6981 184.219 91.1915 184.219C90.3591 184.219 89.7837 183.386 90.0779 182.608L94.4486 171.037C94.6844 170.413 95.2819 170 95.9492 170C96.616 170 97.2133 170.413 97.4494 171.036L101.825 182.6C102.121 183.382 101.544 184.219 100.707 184.219C100.2 184.219 99.7474 183.898 99.5793 183.419L99.1673 182.246ZM94.5629 176.971C94.2307 177.922 94.9366 178.916 95.9439 178.916C96.9512 178.916 97.6571 177.922 97.3249 176.971C96.8682 175.664 95.0196 175.664 94.5629 176.971Z" fill="#F9FFF9"/>
    <path d="M29.1673 182.246C28.8861 181.444 28.1294 180.908 27.2802 180.908H24.6115C23.7604 180.908 23.0025 181.447 22.7227 182.251L22.3158 183.42C22.1493 183.898 21.6981 184.219 21.1915 184.219C20.3591 184.219 19.7837 183.386 20.0779 182.608L24.4486 171.037C24.6844 170.413 25.2819 170 25.9491 170C26.616 170 27.2133 170.413 27.4494 171.036L31.8255 182.6C32.1215 183.382 31.5436 184.219 30.7073 184.219C30.1997 184.219 29.7474 183.898 29.5793 183.419L29.1673 182.246ZM24.5629 176.971C24.2307 177.922 24.9366 178.916 25.9439 178.916C26.9512 178.916 27.6571 177.922 27.3249 176.971C26.8682 175.664 25.0196 175.664 24.5629 176.971Z" fill="#F9FFF9"/>
  </g>
  <g id="7">
    <path d="M29.8535 17.0891C29.8535 17.2403 29.822 17.3898 29.7611 17.5282L24.4657 29.5475C24.2859 29.9554 23.8822 30.2188 23.4364 30.2188C22.6158 30.2188 22.0714 29.3685 22.4148 28.6233L26.0464 20.7412C26.657 19.4161 25.689 17.9043 24.2299 17.9043H20.9521C20.4263 17.9043 20 17.478 20 16.9521C20 16.4263 20.4263 16 20.9521 16H28.7644C29.3659 16 29.8535 16.4876 29.8535 17.0891Z" fill="#F9FFF9"/>
    <path d="M100.854 17.0891C100.854 17.2403 100.822 17.3898 100.761 17.5282L95.4657 29.5475C95.2859 29.9554 94.8822 30.2188 94.4364 30.2188C93.6158 30.2188 93.0714 29.3685 93.4148 28.6233L97.0464 20.7412C97.657 19.4161 96.689 17.9043 95.2299 17.9043H91.9521C91.4263 17.9043 91 17.478 91 16.9521C91 16.4263 91.4263 16 91.9521 16H99.7644C100.366 16 100.854 16.4876 100.854 17.0891Z" fill="#F9FFF9"/>
    <path d="M100.854 171.089C100.854 171.24 100.822 171.39 100.761 171.528L95.4657 183.547C95.2859 183.955 94.8822 184.219 94.4364 184.219C93.6158 184.219 93.0714 183.369 93.4148 182.623L97.0464 174.741C97.657 173.416 96.689 171.904 95.2299 171.904H91.9521C91.4263 171.904 91 171.478 91 170.952C91 170.426 91.4263 170 91.9521 170H99.7644C100.366 170 100.854 170.488 100.854 171.089Z" fill="#F9FFF9"/>
    <path d="M29.8535 171.089C29.8535 171.24 29.822 171.39 29.7611 171.528L24.4657 183.547C24.2859 183.955 23.8822 184.219 23.4364 184.219C22.6158 184.219 22.0714 183.369 22.4148 182.623L26.0464 174.741C26.657 173.416 25.689 171.904 24.2299 171.904H20.9521C20.4263 171.904 20 171.478 20 170.952C20 170.426 20.4263 170 20.9521 170H28.7644C29.3659 170 29.8535 170.488 29.8535 171.089Z" fill="#F9FFF9"/>
  </g>
  <g id="8">
    <path d="M29.0039 19.9453C29.0039 20.6419 28.8249 21.2637 28.4668 21.8105C28.0266 22.4748 28.0561 23.65 28.5467 24.2779C28.6044 24.3517 28.6591 24.4277 28.7109 24.5059C29.1146 25.1048 29.3164 25.7819 29.3164 26.5371C29.3164 27.7871 28.8932 28.7799 28.0469 29.5156C27.2005 30.2448 26.0742 30.6094 24.668 30.6094C23.2552 30.6094 22.1224 30.2415 21.2695 29.5059C20.4232 28.7702 20 27.7806 20 26.5371C20 25.7754 20.2018 25.0918 20.6055 24.4863C20.6556 24.4111 20.7082 24.3381 20.7634 24.2672C21.2469 23.6458 21.2845 22.4669 20.8496 21.8105C20.498 21.2637 20.3223 20.6419 20.3223 19.9453C20.3223 18.7344 20.7129 17.7741 21.4941 17.0645C22.2754 16.3548 23.3301 16 24.6582 16C25.9928 16 27.0508 16.3548 27.832 17.0645C28.6133 17.7741 29.0039 18.7344 29.0039 19.9453ZM26.9434 26.4199C26.9434 25.7168 26.7318 25.1504 26.3086 24.7207C25.8919 24.2845 25.3385 24.0664 24.6484 24.0664C23.9583 24.0664 23.4049 24.2812 22.9883 24.7109C22.5781 25.1406 22.373 25.7103 22.373 26.4199C22.373 27.1165 22.5749 27.6732 22.9785 28.0898C23.3887 28.5065 23.9518 28.7148 24.668 28.7148C25.3841 28.7148 25.9408 28.513 26.3379 28.1094C26.7415 27.7057 26.9434 27.1426 26.9434 26.4199ZM26.6406 20.0332C26.6406 19.4147 26.4616 18.9069 26.1035 18.5098C25.7454 18.1061 25.2637 17.9043 24.6582 17.9043C24.0527 17.9043 23.5742 18.0964 23.2227 18.4805C22.8711 18.8581 22.6953 19.3757 22.6953 20.0332C22.6953 20.6842 22.8711 21.2018 23.2227 21.5859C23.5807 21.9701 24.0625 22.1621 24.668 22.1621C25.2734 22.1621 25.752 21.9701 26.1035 21.5859C26.4616 21.2018 26.6406 20.6842 26.6406 20.0332Z" fill="#F9FFF9"/>
    <path d="M29.0039 173.945C29.0039 174.642 28.8249 175.264 28.4668 175.811C28.0266 176.475 28.0561 177.65 28.5467 178.278C28.6044 178.352 28.6591 178.428 28.7109 178.506C29.1146 179.105 29.3164 179.782 29.3164 180.537C29.3164 181.787 28.8932 182.78 28.0469 183.516C27.2005 184.245 26.0742 184.609 24.668 184.609C23.2552 184.609 22.1224 184.242 21.2695 183.506C20.4232 182.77 20 181.781 20 180.537C20 179.775 20.2018 179.092 20.6055 178.486C20.6556 178.411 20.7082 178.338 20.7634 178.267C21.2469 177.646 21.2845 176.467 20.8496 175.811C20.498 175.264 20.3223 174.642 20.3223 173.945C20.3223 172.734 20.7129 171.774 21.4941 171.064C22.2754 170.355 23.3301 170 24.6582 170C25.9928 170 27.0508 170.355 27.832 171.064C28.6133 171.774 29.0039 172.734 29.0039 173.945ZM26.9434 180.42C26.9434 179.717 26.7318 179.15 26.3086 178.721C25.8919 178.285 25.3385 178.066 24.6484 178.066C23.9583 178.066 23.4049 178.281 22.9883 178.711C22.5781 179.141 22.373 179.71 22.373 180.42C22.373 181.117 22.5749 181.673 22.9785 182.09C23.3887 182.507 23.9518 182.715 24.668 182.715C25.3841 182.715 25.9408 182.513 26.3379 182.109C26.7415 181.706 26.9434 181.143 26.9434 180.42ZM26.6406 174.033C26.6406 173.415 26.4616 172.907 26.1035 172.51C25.7454 172.106 25.2637 171.904 24.6582 171.904C24.0527 171.904 23.5742 172.096 23.2227 172.48C22.8711 172.858 22.6953 173.376 22.6953 174.033C22.6953 174.684 22.8711 175.202 23.2227 175.586C23.5807 175.97 24.0625 176.162 24.668 176.162C25.2734 176.162 25.752 175.97 26.1035 175.586C26.4616 175.202 26.6406 174.684 26.6406 174.033Z" fill="#F9FFF9"/>
    <path d="M101.004 19.9453C101.004 20.6419 100.825 21.2637 100.467 21.8105C100.027 22.4748 100.056 23.65 100.547 24.2779C100.604 24.3517 100.659 24.4277 100.711 24.5059C101.115 25.1048 101.316 25.7819 101.316 26.5371C101.316 27.7871 100.893 28.7799 100.047 29.5156C99.2005 30.2448 98.0742 30.6094 96.668 30.6094C95.2552 30.6094 94.1224 30.2415 93.2695 29.5059C92.4232 28.7702 92 27.7806 92 26.5371C92 25.7754 92.2018 25.0918 92.6055 24.4863C92.6556 24.4111 92.7082 24.3381 92.7634 24.2672C93.2469 23.6458 93.2845 22.4669 92.8496 21.8105C92.498 21.2637 92.3223 20.6419 92.3223 19.9453C92.3223 18.7344 92.7129 17.7741 93.4941 17.0645C94.2754 16.3548 95.3301 16 96.6582 16C97.9928 16 99.0508 16.3548 99.832 17.0645C100.613 17.7741 101.004 18.7344 101.004 19.9453ZM98.9434 26.4199C98.9434 25.7168 98.7318 25.1504 98.3086 24.7207C97.8919 24.2845 97.3385 24.0664 96.6484 24.0664C95.9583 24.0664 95.4049 24.2812 94.9883 24.7109C94.5781 25.1406 94.373 25.7103 94.373 26.4199C94.373 27.1165 94.5749 27.6732 94.9785 28.0898C95.3887 28.5065 95.9518 28.7148 96.668 28.7148C97.3841 28.7148 97.9408 28.513 98.3379 28.1094C98.7415 27.7057 98.9434 27.1426 98.9434 26.4199ZM98.6406 20.0332C98.6406 19.4147 98.4616 18.9069 98.1035 18.5098C97.7454 18.1061 97.2637 17.9043 96.6582 17.9043C96.0527 17.9043 95.5742 18.0964 95.2227 18.4805C94.8711 18.8581 94.6953 19.3757 94.6953 20.0332C94.6953 20.6842 94.8711 21.2018 95.2227 21.5859C95.5807 21.9701 96.0625 22.1621 96.668 22.1621C97.2734 22.1621 97.752 21.9701 98.1035 21.5859C98.4616 21.2018 98.6406 20.6842 98.6406 20.0332Z" fill="#F9FFF9"/>
    <path d="M101.004 173.945C101.004 174.642 100.825 175.264 100.467 175.811C100.027 176.475 100.056 177.65 100.547 178.278C100.604 178.352 100.659 178.428 100.711 178.506C101.115 179.105 101.316 179.782 101.316 180.537C101.316 181.787 100.893 182.78 100.047 183.516C99.2005 184.245 98.0742 184.609 96.668 184.609C95.2552 184.609 94.1224 184.242 93.2695 183.506C92.4232 182.77 92 181.781 92 180.537C92 179.775 92.2018 179.092 92.6055 178.486C92.6556 178.411 92.7082 178.338 92.7634 178.267C93.2469 177.646 93.2845 176.467 92.8496 175.811C92.498 175.264 92.3223 174.642 92.3223 173.945C92.3223 172.734 92.7129 171.774 93.4941 171.064C94.2754 170.355 95.3301 170 96.6582 170C97.9928 170 99.0508 170.355 99.832 171.064C100.613 171.774 101.004 172.734 101.004 173.945ZM98.9434 180.42C98.9434 179.717 98.7318 179.15 98.3086 178.721C97.8919 178.285 97.3385 178.066 96.6484 178.066C95.9583 178.066 95.4049 178.281 94.9883 178.711C94.5781 179.141 94.373 179.71 94.373 180.42C94.373 181.117 94.5749 181.673 94.9785 182.09C95.3887 182.507 95.9518 182.715 96.668 182.715C97.3841 182.715 97.9408 182.513 98.3379 182.109C98.7415 181.706 98.9434 181.143 98.9434 180.42ZM98.6406 174.033C98.6406 173.415 98.4616 172.907 98.1035 172.51C97.7454 172.106 97.2637 171.904 96.6582 171.904C96.0527 171.904 95.5742 172.096 95.2227 172.48C94.8711 172.858 94.6953 173.376 94.6953 174.033C94.6953 174.684 94.8711 175.202 95.2227 175.586C95.5807 175.97 96.0625 176.162 96.668 176.162C97.2734 176.162 97.752 175.97 98.1035 175.586C98.4616 175.202 98.6406 174.684 98.6406 174.033Z" fill="#F9FFF9"/>
  </g>
  <g id="9">
    <path d="M25.7913 27.3465C26.5345 26.5888 25.1629 25.7266 24.1016 25.7266C22.8516 25.7266 21.8555 25.2904 21.1133 24.418C20.3711 23.5391 20 22.3867 20 20.9609C20 20.0234 20.1888 19.1738 20.5664 18.4121C20.944 17.6504 21.4811 17.0579 22.1777 16.6348C22.8743 16.2116 23.6816 16 24.5996 16C26.0319 16 27.168 16.5339 28.0078 17.6016C28.8477 18.6693 29.2676 20.0983 29.2676 21.8887V22.5527C29.2676 25.1178 28.6882 27.0742 27.5293 28.4219C26.3704 29.7695 24.6419 30.4531 22.3438 30.4727C22.1873 30.4727 22.0605 30.3459 22.0605 30.1895V28.8516C22.0605 28.6628 22.2136 28.5098 22.4023 28.5098C23.8021 28.4902 24.8763 28.1549 25.625 27.5039C25.6824 27.4535 25.7378 27.4011 25.7913 27.3465ZM24.5996 23.8711C25.0749 23.8711 25.5208 23.7344 25.9375 23.4609C26.234 23.2663 26.4827 23.019 26.6837 22.7189C26.8482 22.4731 26.9043 22.1747 26.9043 21.879V21.4004C26.9043 20.3522 26.6895 19.5091 26.2598 18.8711C25.8301 18.2331 25.2734 17.9141 24.5898 17.9141C23.9062 17.9141 23.3594 18.1973 22.9492 18.7637C22.5456 19.3236 22.3438 20.0332 22.3438 20.8926C22.3438 21.7845 22.5488 22.5039 22.959 23.0508C23.3691 23.5977 23.916 23.8711 24.5996 23.8711Z" fill="#F9FFF9"/>
    <path d="M97.7913 27.3465C98.5345 26.5888 97.1629 25.7266 96.1016 25.7266C94.8516 25.7266 93.8555 25.2904 93.1133 24.418C92.3711 23.5391 92 22.3867 92 20.9609C92 20.0234 92.1888 19.1738 92.5664 18.4121C92.944 17.6504 93.4811 17.0579 94.1777 16.6348C94.8743 16.2116 95.6816 16 96.5996 16C98.0319 16 99.168 16.5339 100.008 17.6016C100.848 18.6693 101.268 20.0983 101.268 21.8887V22.5527C101.268 25.1178 100.688 27.0742 99.5293 28.4219C98.3704 29.7695 96.6419 30.4531 94.3438 30.4727C94.1873 30.4727 94.0605 30.3459 94.0605 30.1895V28.8516C94.0605 28.6628 94.2136 28.5098 94.4023 28.5098C95.8021 28.4902 96.8763 28.1549 97.625 27.5039C97.6824 27.4535 97.7378 27.4011 97.7913 27.3465ZM96.5996 23.8711C97.0749 23.8711 97.5208 23.7344 97.9375 23.4609C98.234 23.2663 98.4827 23.019 98.6837 22.7189C98.8482 22.4731 98.9043 22.1747 98.9043 21.879V21.4004C98.9043 20.3522 98.6895 19.5091 98.2598 18.8711C97.8301 18.2331 97.2734 17.9141 96.5898 17.9141C95.9062 17.9141 95.3594 18.1973 94.9492 18.7637C94.5456 19.3236 94.3438 20.0332 94.3438 20.8926C94.3438 21.7845 94.5488 22.5039 94.959 23.0508C95.3691 23.5977 95.916 23.8711 96.5996 23.8711Z" fill="#F9FFF9"/>
    <path d="M25.7913 181.347C26.5345 180.589 25.1629 179.727 24.1016 179.727C22.8516 179.727 21.8555 179.29 21.1133 178.418C20.3711 177.539 20 176.387 20 174.961C20 174.023 20.1888 173.174 20.5664 172.412C20.944 171.65 21.4811 171.058 22.1777 170.635C22.8743 170.212 23.6816 170 24.5996 170C26.0319 170 27.168 170.534 28.0078 171.602C28.8477 172.669 29.2676 174.098 29.2676 175.889V176.553C29.2676 179.118 28.6882 181.074 27.5293 182.422C26.3704 183.77 24.6419 184.453 22.3438 184.473C22.1873 184.473 22.0605 184.346 22.0605 184.189V182.852C22.0605 182.663 22.2136 182.51 22.4023 182.51C23.8021 182.49 24.8763 182.155 25.625 181.504C25.6824 181.454 25.7378 181.401 25.7913 181.347ZM24.5996 177.871C25.0749 177.871 25.5208 177.734 25.9375 177.461C26.234 177.266 26.4827 177.019 26.6837 176.719C26.8482 176.473 26.9043 176.175 26.9043 175.879V175.4C26.9043 174.352 26.6895 173.509 26.2598 172.871C25.8301 172.233 25.2734 171.914 24.5898 171.914C23.9062 171.914 23.3594 172.197 22.9492 172.764C22.5456 173.324 22.3438 174.033 22.3438 174.893C22.3438 175.785 22.5488 176.504 22.959 177.051C23.3691 177.598 23.916 177.871 24.5996 177.871Z" fill="#F9FFF9"/>
    <path d="M97.7913 181.347C98.5345 180.589 97.1629 179.727 96.1016 179.727C94.8516 179.727 93.8555 179.29 93.1133 178.418C92.3711 177.539 92 176.387 92 174.961C92 174.023 92.1888 173.174 92.5664 172.412C92.944 171.65 93.4811 171.058 94.1777 170.635C94.8743 170.212 95.6816 170 96.5996 170C98.0319 170 99.168 170.534 100.008 171.602C100.848 172.669 101.268 174.098 101.268 175.889V176.553C101.268 179.118 100.688 181.074 99.5293 182.422C98.3704 183.77 96.6419 184.453 94.3438 184.473C94.1873 184.473 94.0605 184.346 94.0605 184.189V182.852C94.0605 182.663 94.2136 182.51 94.4023 182.51C95.8021 182.49 96.8763 182.155 97.625 181.504C97.6824 181.454 97.7378 181.401 97.7913 181.347ZM96.5996 177.871C97.0749 177.871 97.5208 177.734 97.9375 177.461C98.234 177.266 98.4827 177.019 98.6837 176.719C98.8482 176.473 98.9043 176.175 98.9043 175.879V175.4C98.9043 174.352 98.6895 173.509 98.2598 172.871C97.8301 172.233 97.2734 171.914 96.5898 171.914C95.9062 171.914 95.3594 172.197 94.9492 172.764C94.5456 173.324 94.3438 174.033 94.3438 174.893C94.3438 175.785 94.5488 176.504 94.959 177.051C95.3691 177.598 95.916 177.871 96.5996 177.871Z" fill="#F9FFF9"/>
  </g>
  <g id="10">
    <path d="M20.8496 29.2324C20.8496 29.885 20.3206 30.4141 19.668 30.4141C19.0154 30.4141 18.4863 29.885 18.4863 29.2324V20.8402C18.4863 19.9369 17.5979 19.3017 16.7432 19.5938L16.2639 19.7575C15.6442 19.9693 15 19.5087 15 18.8538C15 18.4535 15.2496 18.0957 15.6253 17.9574L20.5039 16.1623C20.5323 16.1518 20.5624 16.1465 20.5926 16.1465C20.7346 16.1465 20.8496 16.2615 20.8496 16.4034V29.2324Z" fill="#F9FFF9"/>
    <path d="M35.0586 24.4277C35.0586 26.472 34.6745 28.015 33.9062 29.0566C33.1445 30.0918 31.9824 30.6094 30.4199 30.6094C28.8835 30.6094 27.7246 30.1048 26.9434 29.0957C26.1686 28.0801 25.7715 26.5794 25.752 24.5938V22.1328C25.752 20.0885 26.1328 18.5553 26.8945 17.5332C27.6628 16.5111 28.8314 16 30.4004 16C31.9564 16 33.1152 16.498 33.877 17.4941C34.6452 18.4902 35.0391 19.9811 35.0586 21.9668V24.4277ZM32.6855 21.7715C32.6855 20.4368 32.5033 19.4603 32.1387 18.8418C31.7741 18.2168 31.1947 17.9043 30.4004 17.9043C29.6257 17.9043 29.056 18.2005 28.6914 18.793C28.3268 19.3789 28.1348 20.2969 28.1152 21.5469V24.7695C28.1152 26.0977 28.3008 27.0872 28.6719 27.7383C29.043 28.3893 29.6257 28.7148 30.4199 28.7148C31.1816 28.7148 31.7448 28.4154 32.1094 27.8164C32.474 27.2109 32.666 26.2669 32.6855 24.9844V21.7715Z" fill="#F9FFF9"/>
    <path d="M20.8496 183.232C20.8496 183.885 20.3206 184.414 19.668 184.414C19.0154 184.414 18.4863 183.885 18.4863 183.232V174.84C18.4863 173.937 17.5979 173.302 16.7432 173.594L16.2639 173.758C15.6442 173.969 15 173.509 15 172.854C15 172.453 15.2496 172.096 15.6253 171.957L20.5039 170.162C20.5323 170.152 20.5624 170.146 20.5926 170.146C20.7346 170.146 20.8496 170.262 20.8496 170.403V183.232Z" fill="#F9FFF9"/>
    <path d="M35.0586 178.428C35.0586 180.472 34.6745 182.015 33.9062 183.057C33.1445 184.092 31.9824 184.609 30.4199 184.609C28.8835 184.609 27.7246 184.105 26.9434 183.096C26.1686 182.08 25.7715 180.579 25.752 178.594V176.133C25.752 174.089 26.1328 172.555 26.8945 171.533C27.6628 170.511 28.8314 170 30.4004 170C31.9564 170 33.1152 170.498 33.877 171.494C34.6452 172.49 35.0391 173.981 35.0586 175.967V178.428ZM32.6855 175.771C32.6855 174.437 32.5033 173.46 32.1387 172.842C31.7741 172.217 31.1947 171.904 30.4004 171.904C29.6257 171.904 29.056 172.201 28.6914 172.793C28.3268 173.379 28.1348 174.297 28.1152 175.547V178.77C28.1152 180.098 28.3008 181.087 28.6719 181.738C29.043 182.389 29.6257 182.715 30.4199 182.715C31.1816 182.715 31.7448 182.415 32.1094 181.816C32.474 181.211 32.666 180.267 32.6855 178.984V175.771Z" fill="#F9FFF9"/>
    <path d="M92.8496 29.2324C92.8496 29.885 92.3206 30.4141 91.668 30.4141C91.0154 30.4141 90.4863 29.885 90.4863 29.2324V20.8402C90.4863 19.9369 89.5979 19.3017 88.7432 19.5938L88.2639 19.7575C87.6442 19.9693 87 19.5087 87 18.8538C87 18.4535 87.2496 18.0957 87.6253 17.9574L92.5039 16.1623C92.5323 16.1518 92.5624 16.1465 92.5927 16.1465C92.7346 16.1465 92.8496 16.2615 92.8496 16.4034V29.2324Z" fill="#F9FFF9"/>
    <path d="M107.059 24.4277C107.059 26.472 106.674 28.015 105.906 29.0566C105.145 30.0918 103.982 30.6094 102.42 30.6094C100.883 30.6094 99.7246 30.1048 98.9434 29.0957C98.1686 28.0801 97.7715 26.5794 97.752 24.5938V22.1328C97.752 20.0885 98.1328 18.5553 98.8945 17.5332C99.6628 16.5111 100.831 16 102.4 16C103.956 16 105.115 16.498 105.877 17.4941C106.645 18.4902 107.039 19.9811 107.059 21.9668V24.4277ZM104.686 21.7715C104.686 20.4368 104.503 19.4603 104.139 18.8418C103.774 18.2168 103.195 17.9043 102.4 17.9043C101.626 17.9043 101.056 18.2005 100.691 18.793C100.327 19.3789 100.135 20.2969 100.115 21.5469V24.7695C100.115 26.0977 100.301 27.0872 100.672 27.7383C101.043 28.3893 101.626 28.7148 102.42 28.7148C103.182 28.7148 103.745 28.4154 104.109 27.8164C104.474 27.2109 104.666 26.2669 104.686 24.9844V21.7715Z" fill="#F9FFF9"/>
    <path d="M92.8496 183.232C92.8496 183.885 92.3206 184.414 91.668 184.414C91.0154 184.414 90.4863 183.885 90.4863 183.232V174.84C90.4863 173.937 89.5979 173.302 88.7432 173.594L88.2639 173.758C87.6442 173.969 87 173.509 87 172.854C87 172.453 87.2496 172.096 87.6253 171.957L92.5039 170.162C92.5323 170.152 92.5624 170.146 92.5927 170.146C92.7346 170.146 92.8496 170.262 92.8496 170.403V183.232Z" fill="#F9FFF9"/>
    <path d="M107.059 178.428C107.059 180.472 106.674 182.015 105.906 183.057C105.145 184.092 103.982 184.609 102.42 184.609C100.883 184.609 99.7246 184.105 98.9434 183.096C98.1686 182.08 97.7715 180.579 97.752 178.594V176.133C97.752 174.089 98.1328 172.555 98.8945 171.533C99.6628 170.511 100.831 170 102.4 170C103.956 170 105.115 170.498 105.877 171.494C106.645 172.49 107.039 173.981 107.059 175.967V178.428ZM104.686 175.771C104.686 174.437 104.503 173.46 104.139 172.842C103.774 172.217 103.195 171.904 102.4 171.904C101.626 171.904 101.056 172.201 100.691 172.793C100.327 173.379 100.135 174.297 100.115 175.547V178.77C100.115 180.098 100.301 181.087 100.672 181.738C101.043 182.389 101.626 182.715 102.42 182.715C103.182 182.715 103.745 182.415 104.109 181.816C104.474 181.211 104.666 180.267 104.686 178.984V175.771Z" fill="#F9FFF9"/>
  </g>
  <g id="jack">
    <path d="M26.7205 17.2305C26.7205 16.5509 27.2714 16 27.951 16C28.6306 16 29.1815 16.5509 29.1815 17.2305V25.9707C29.1815 27.3314 28.755 28.4121 27.9022 29.2129C27.0558 30.0137 25.936 30.4141 24.5428 30.4141C23.0584 30.4141 21.9126 30.0397 21.1053 29.291C20.5633 28.7884 20.2033 28.1537 20.0252 27.387C19.8714 26.7251 20.4453 26.166 21.1248 26.166C21.8044 26.166 22.2977 26.7471 22.5742 27.3679C22.661 27.5627 22.7736 27.7318 22.9119 27.875C23.2895 28.2526 23.8332 28.4414 24.5428 28.4414C25.2069 28.4414 25.7342 28.2233 26.1248 27.7871C26.522 27.3444 26.7205 26.7357 26.7205 25.9609V17.2305Z" fill="#F9FFF9"/>
    <path d="M98.7205 17.2305C98.7205 16.5509 99.2714 16 99.951 16C100.631 16 101.181 16.5509 101.181 17.2305V25.9707C101.181 27.3314 100.755 28.4121 99.9022 29.2129C99.0558 30.0137 97.936 30.4141 96.5428 30.4141C95.0584 30.4141 93.9126 30.0397 93.1053 29.291C92.5633 28.7884 92.2033 28.1537 92.0252 27.387C91.8714 26.7251 92.4453 26.166 93.1248 26.166C93.8044 26.166 94.2977 26.7471 94.5742 27.3679C94.661 27.5627 94.7736 27.7318 94.9119 27.875C95.2895 28.2526 95.8332 28.4414 96.5428 28.4414C97.2069 28.4414 97.7342 28.2233 98.1248 27.7871C98.522 27.3444 98.7205 26.7357 98.7205 25.9609V17.2305Z" fill="#F9FFF9"/>
    <path d="M26.7205 171.23C26.7205 170.551 27.2714 170 27.951 170C28.6306 170 29.1815 170.551 29.1815 171.23V179.971C29.1815 181.331 28.755 182.412 27.9022 183.213C27.0558 184.014 25.936 184.414 24.5428 184.414C23.0584 184.414 21.9126 184.04 21.1053 183.291C20.5633 182.788 20.2033 182.154 20.0252 181.387C19.8714 180.725 20.4453 180.166 21.1248 180.166C21.8044 180.166 22.2977 180.747 22.5742 181.368C22.661 181.563 22.7736 181.732 22.9119 181.875C23.2895 182.253 23.8332 182.441 24.5428 182.441C25.2069 182.441 25.7342 182.223 26.1248 181.787C26.522 181.344 26.7205 180.736 26.7205 179.961V171.23Z" fill="#F9FFF9"/>
    <path d="M98.7205 171.23C98.7205 170.551 99.2714 170 99.951 170C100.631 170 101.181 170.551 101.181 171.23V179.971C101.181 181.331 100.755 182.412 99.9022 183.213C99.0558 184.014 97.936 184.414 96.5428 184.414C95.0584 184.414 93.9126 184.04 93.1053 183.291C92.5633 182.788 92.2033 182.154 92.0252 181.387C91.8714 180.725 92.4453 180.166 93.1248 180.166C93.8044 180.166 94.2977 180.747 94.5742 181.368C94.661 181.563 94.7736 181.732 94.9119 181.875C95.2895 182.253 95.8332 182.441 96.5428 182.441C97.2069 182.441 97.7342 182.223 98.1248 181.787C98.522 181.344 98.7205 180.736 98.7205 179.961V171.23Z" fill="#F9FFF9"/>
  </g>
  <g id="queen">
    <path d="M30.8066 22.6758C30.8066 24.0234 30.5918 25.1921 30.1621 26.1816C29.9746 26.6172 29.7532 27.0132 29.498 27.3695C29.0228 28.033 29.0071 29.0185 29.6507 29.5204L29.8211 29.6534C30.3404 30.0584 30.3683 30.8341 29.8793 31.2753C29.4956 31.6216 28.9181 31.6405 28.5126 31.32L26.925 30.0653C26.4579 29.6961 25.8507 29.5713 25.2559 29.6009C25.142 29.6065 25.0261 29.6094 24.9082 29.6094C23.7624 29.6094 22.737 29.3294 21.832 28.7695C20.9336 28.2031 20.237 27.3991 19.7422 26.3574C19.2539 25.3158 19.0065 24.1146 19 22.7539V21.9531C19 20.5664 19.2441 19.3424 19.7324 18.2812C20.2272 17.2201 20.9206 16.4095 21.8125 15.8496C22.7109 15.2832 23.7363 15 24.8887 15C26.0605 15 27.0924 15.2799 27.9844 15.8398C28.8828 16.3932 29.5762 17.194 30.0645 18.2422C30.5527 19.2839 30.8001 20.498 30.8066 21.8848V22.6758ZM28.3262 21.9336C28.3262 20.332 28.0267 19.1178 27.4277 18.291C26.8288 17.4642 25.9824 17.0508 24.8887 17.0508C23.8275 17.0508 22.9941 17.4707 22.3887 18.3105C21.7897 19.1439 21.4837 20.3223 21.4707 21.8457V22.6758C21.4707 24.2122 21.7702 25.4134 22.3691 26.2793C22.9746 27.1452 23.821 27.5781 24.9082 27.5781C26.0085 27.5781 26.8516 27.1615 27.4375 26.3281C28.0299 25.4948 28.3262 24.2773 28.3262 22.6758V21.9336Z" fill="#F9FFF9"/>
    <path d="M30.8066 176.676C30.8066 178.023 30.5918 179.192 30.1621 180.182C29.9746 180.617 29.7532 181.013 29.498 181.369C29.0228 182.033 29.0071 183.018 29.6507 183.52L29.8211 183.653C30.3404 184.058 30.3683 184.834 29.8793 185.275C29.4956 185.622 28.9181 185.64 28.5126 185.32L26.925 184.065C26.4579 183.696 25.8507 183.571 25.2559 183.601C25.142 183.607 25.0261 183.609 24.9082 183.609C23.7624 183.609 22.737 183.329 21.832 182.77C20.9336 182.203 20.237 181.399 19.7422 180.357C19.2539 179.316 19.0065 178.115 19 176.754V175.953C19 174.566 19.2441 173.342 19.7324 172.281C20.2272 171.22 20.9206 170.41 21.8125 169.85C22.7109 169.283 23.7363 169 24.8887 169C26.0605 169 27.0924 169.28 27.9844 169.84C28.8828 170.393 29.5762 171.194 30.0645 172.242C30.5527 173.284 30.8001 174.498 30.8066 175.885V176.676ZM28.3262 175.934C28.3262 174.332 28.0267 173.118 27.4277 172.291C26.8288 171.464 25.9824 171.051 24.8887 171.051C23.8275 171.051 22.9941 171.471 22.3887 172.311C21.7897 173.144 21.4837 174.322 21.4707 175.846V176.676C21.4707 178.212 21.7702 179.413 22.3691 180.279C22.9746 181.145 23.821 181.578 24.9082 181.578C26.0085 181.578 26.8516 181.161 27.4375 180.328C28.0299 179.495 28.3262 178.277 28.3262 176.676V175.934Z" fill="#F9FFF9"/>
    <path d="M102.807 22.6758C102.807 24.0234 102.592 25.1921 102.162 26.1816C101.975 26.6172 101.753 27.0132 101.498 27.3695C101.023 28.033 101.007 29.0185 101.651 29.5204L101.821 29.6534C102.34 30.0584 102.368 30.8341 101.879 31.2753C101.496 31.6216 100.918 31.6405 100.513 31.32L98.925 30.0653C98.4579 29.6961 97.8507 29.5713 97.2559 29.6009C97.142 29.6065 97.0261 29.6094 96.9082 29.6094C95.7624 29.6094 94.737 29.3294 93.832 28.7695C92.9336 28.2031 92.237 27.3991 91.7422 26.3574C91.2539 25.3158 91.0065 24.1146 91 22.7539V21.9531C91 20.5664 91.2441 19.3424 91.7324 18.2812C92.2272 17.2201 92.9206 16.4095 93.8125 15.8496C94.7109 15.2832 95.7363 15 96.8887 15C98.0605 15 99.0924 15.2799 99.9844 15.8398C100.883 16.3932 101.576 17.194 102.064 18.2422C102.553 19.2839 102.8 20.498 102.807 21.8848V22.6758ZM100.326 21.9336C100.326 20.332 100.027 19.1178 99.4277 18.291C98.8288 17.4642 97.9824 17.0508 96.8887 17.0508C95.8275 17.0508 94.9941 17.4707 94.3887 18.3105C93.7897 19.1439 93.4837 20.3223 93.4707 21.8457V22.6758C93.4707 24.2122 93.7702 25.4134 94.3691 26.2793C94.9746 27.1452 95.821 27.5781 96.9082 27.5781C98.0085 27.5781 98.8516 27.1615 99.4375 26.3281C100.03 25.4948 100.326 24.2773 100.326 22.6758V21.9336Z" fill="#F9FFF9"/>
    <path d="M102.807 176.676C102.807 178.023 102.592 179.192 102.162 180.182C101.975 180.617 101.753 181.013 101.498 181.369C101.023 182.033 101.007 183.018 101.651 183.52L101.821 183.653C102.34 184.058 102.368 184.834 101.879 185.275C101.496 185.622 100.918 185.64 100.513 185.32L98.925 184.065C98.4579 183.696 97.8507 183.571 97.2559 183.601C97.142 183.607 97.0261 183.609 96.9082 183.609C95.7624 183.609 94.737 183.329 93.832 182.77C92.9336 182.203 92.237 181.399 91.7422 180.357C91.2539 179.316 91.0065 178.115 91 176.754V175.953C91 174.566 91.2441 173.342 91.7324 172.281C92.2272 171.22 92.9206 170.41 93.8125 169.85C94.7109 169.283 95.7363 169 96.8887 169C98.0605 169 99.0924 169.28 99.9844 169.84C100.883 170.393 101.576 171.194 102.064 172.242C102.553 173.284 102.8 174.498 102.807 175.885V176.676ZM100.326 175.934C100.326 174.332 100.027 173.118 99.4277 172.291C98.8288 171.464 97.9824 171.051 96.8887 171.051C95.8275 171.051 94.9941 171.471 94.3887 172.311C93.7897 173.144 93.4837 174.322 93.4707 175.846V176.676C93.4707 178.212 93.7702 179.413 94.3691 180.279C94.9746 181.145 95.821 181.578 96.9082 181.578C98.0085 181.578 98.8516 181.161 99.4375 180.328C100.03 179.495 100.326 178.277 100.326 176.676V175.934Z" fill="#F9FFF9"/>
  </g>
  <g id="king">
    <path d="M24.0969 25.5337C23.5737 24.7822 22.4918 24.7022 21.8637 25.3684C21.6113 25.6361 21.4707 25.9901 21.4707 26.358V28.9834C21.4707 29.6657 20.9176 30.2188 20.2354 30.2188C19.5531 30.2188 19 29.6657 19 28.9834V17.2354C19 16.5531 19.5531 16 20.2354 16C20.9176 16 21.4707 16.5531 21.4707 17.2354V20.4966C21.4707 21.2215 22.3818 21.544 22.8379 20.9805L26.655 16.4107C26.8724 16.1504 27.194 16 27.5332 16C28.505 16 29.0344 17.135 28.4098 17.8795L25.6926 21.1191C25.1094 21.8145 25.0675 22.8154 25.5906 23.5571L28.9602 28.3347C29.5187 29.1264 28.9524 30.2188 27.9835 30.2188C27.5925 30.2188 27.2262 30.0275 27.0027 29.7065L24.0969 25.5337Z" fill="#F9FFF9"/>
    <path d="M24.0969 179.534C23.5737 178.782 22.4918 178.702 21.8637 179.368C21.6113 179.636 21.4707 179.99 21.4707 180.358V182.983C21.4707 183.666 20.9176 184.219 20.2354 184.219C19.5531 184.219 19 183.666 19 182.983V171.235C19 170.553 19.5531 170 20.2354 170C20.9176 170 21.4707 170.553 21.4707 171.235V174.497C21.4707 175.222 22.3818 175.544 22.8379 174.98L26.655 170.411C26.8724 170.15 27.194 170 27.5332 170C28.505 170 29.0344 171.135 28.4098 171.88L25.6926 175.119C25.1094 175.814 25.0675 176.815 25.5906 177.557L28.9602 182.335C29.5187 183.126 28.9524 184.219 27.9835 184.219C27.5925 184.219 27.2262 184.027 27.0027 183.707L24.0969 179.534Z" fill="#F9FFF9"/>
    <path d="M97.0969 25.5337C96.5737 24.7822 95.4918 24.7022 94.8636 25.3684C94.6113 25.6361 94.4707 25.9901 94.4707 26.358V28.9834C94.4707 29.6657 93.9176 30.2188 93.2354 30.2188C92.5531 30.2188 92 29.6657 92 28.9834V17.2354C92 16.5531 92.5531 16 93.2354 16C93.9176 16 94.4707 16.5531 94.4707 17.2354V20.4966C94.4707 21.2215 95.3818 21.544 95.8379 20.9805L99.655 16.4107C99.8724 16.1504 100.194 16 100.533 16C101.505 16 102.034 17.135 101.41 17.8795L98.6926 21.1191C98.1094 21.8145 98.0675 22.8154 98.5906 23.5571L101.96 28.3347C102.519 29.1264 101.952 30.2188 100.984 30.2188C100.592 30.2188 100.226 30.0275 100.003 29.7065L97.0969 25.5337Z" fill="#F9FFF9"/>
    <path d="M97.0969 179.534C96.5737 178.782 95.4918 178.702 94.8636 179.368C94.6113 179.636 94.4707 179.99 94.4707 180.358V182.983C94.4707 183.666 93.9176 184.219 93.2354 184.219C92.5531 184.219 92 183.666 92 182.983V171.235C92 170.553 92.5531 170 93.2354 170C93.9176 170 94.4707 170.553 94.4707 171.235V174.497C94.4707 175.222 95.3818 175.544 95.8379 174.98L99.655 170.411C99.8724 170.15 100.194 170 100.533 170C101.505 170 102.034 171.135 101.41 171.88L98.6926 175.119C98.1094 175.814 98.0675 176.815 98.5906 177.557L101.96 182.335C102.519 183.126 101.952 184.219 100.984 184.219C100.592 184.219 100.226 184.027 100.003 183.707L97.0969 179.534Z" fill="#F9FFF9"/>
  </g>
</g>
  <g id="family">
    <g id="heart">
      <path id="heart_2" d="M42.351 86.1324C50.0563 75.8761 60.5 83.503 60.5 87.4471C60.5 83.503 70.9437 75.8759 78.649 86.1323C89.0199 99.9367 61.7964 111.769 60.5 119C59.2036 111.769 31.9801 99.9369 42.351 86.1324Z" fill="#F9FFF9"/>
    </g>
    <g id="diamond">
      <path id="diamond_2" d="M46.9723 96.0202C51.3012 92.1657 57.7945 79.0673 60.5 73C63.2055 79.0673 69.6988 92.1657 74.0277 96.0202C79.4388 100.838 60.5 108.869 60.5 126C60.5 108.869 41.5612 100.838 46.9723 96.0202Z" fill="#F9FFF9"/>
    </g>
    <g id="spade">
      <path id="spade_2" d="M54.3095 122H60.5H66.6905C64.627 119.067 59.2 108.486 62.6667 108.486C71.6429 108.486 73.5 104.086 80 108.486C80 95.9143 60.5 83.0286 60.5 78C60.5 83.0286 41 95.9143 41 108.486C47.5 104.086 49.3571 108.486 58.3333 108.486C61.8 108.486 56.373 119.067 54.3095 122Z" fill="#F9FFF9"/>
    </g>
    <g id="club">
      <path id="club_2" d="M54.3095 120.5H60.5L66.6905 120.5C64.627 117.567 59.2 106.986 62.6667 106.986H62.762C71.6878 106.986 78 106.986 78 99C78 93.8844 74 90 67.5 91.5C72.5 86 69 78 60.5 78C51.9414 78 48.5 86 53.5 91.5C47 90 43 93.8844 43 99C43 106.986 49.3122 106.986 58.238 106.986H58.3333C61.8 106.986 56.373 117.567 54.3095 120.5Z" fill="#F9FFF9"/>
    </g>
  </g>
</g>
<defs>
<filter id="filter0_d" x="0" y="0" width="120.819" height="207.751" filterUnits="userSpaceOnUse" color-interpolation-filters="sRGB">
<feFlood flood-opacity="0" result="BackgroundImageFix"/>
<feColorMatrix in="SourceAlpha" type="matrix" values="0 0 0 0 0 0 0 0 0 0 0 0 0 0 0 0 0 0 127 0"/>
<feOffset dy="4"/>
<feGaussianBlur stdDeviation="2"/>
<feColorMatrix type="matrix" values="0 0 0 0 0 0 0 0 0 0 0 0 0 0 0 0 0 0 0.25 0"/>
<feBlend mode="normal" in2="BackgroundImageFix" result="effect1_dropShadow"/>
<feBlend mode="normal" in="SourceGraphic" in2="effect1_dropShadow" result="shape"/>
</filter>
</defs>
</svg>
