<svg width="113" height="200" viewBox="0 0 113 200" fill="none" xmlns="http://www.w3.org/2000/svg">
<g id="card">
<g id="card-bkg">
<path id="card-bkg_2" d="M12 199.751H100.819C107.446 199.751 112.819 194.379 112.819 187.751V12C112.819 5.37258 107.446 0 100.819 0H12C5.37258 0 0 5.37259 0 12V187.751C0 194.379 5.37259 199.751 12 199.751Z" fill="#F9FFF9"/>
</g>
<g id="rank">
<g id="as">
<path d="M25.1673 28.2458C24.8861 27.4445 24.1294 26.9082 23.2802 26.9082H20.6115C19.7604 26.9082 19.0025 27.4469 18.7227 28.2507L18.3158 29.4197C18.1493 29.8981 17.6981 30.2188 17.1915 30.2188C16.3591 30.2188 15.7837 29.3863 16.0779 28.6076L20.4486 17.0372C20.6844 16.413 21.2819 16 21.9491 16C22.616 16 23.2133 16.4126 23.4494 17.0363L27.8255 28.6C28.1215 29.3822 27.5436 30.2188 26.7073 30.2188C26.1997 30.2188 25.7474 29.8982 25.5793 29.4192L25.1673 28.2458ZM20.5629 22.9707C20.2307 23.9217 20.9366 24.916 21.9439 24.916C22.9512 24.916 23.6571 23.9217 23.3249 22.9707C22.8682 21.6636 21.0196 21.6636 20.5629 22.9707Z" fill="#F9FFF9"/>
<path d="M95.1673 28.2458C94.8861 27.4445 94.1294 26.9082 93.2802 26.9082H90.6115C89.7604 26.9082 89.0025 27.4469 88.7227 28.2507L88.3158 29.4197C88.1493 29.8981 87.6981 30.2188 87.1915 30.2188C86.3591 30.2188 85.7837 29.3863 86.0779 28.6076L90.4486 17.0372C90.6844 16.413 91.2819 16 91.9492 16C92.616 16 93.2133 16.4126 93.4494 17.0363L97.8255 28.6C98.1215 29.3822 97.5436 30.2188 96.7073 30.2188C96.1997 30.2188 95.7474 29.8982 95.5793 29.4192L95.1673 28.2458ZM90.5629 22.9707C90.2307 23.9217 90.9366 24.916 91.9439 24.916C92.9512 24.916 93.6571 23.9217 93.3249 22.9707C92.8682 21.6636 91.0196 21.6636 90.5629 22.9707Z" fill="#F9FFF9"/>
<path d="M95.1673 182.246C94.8861 181.444 94.1294 180.908 93.2802 180.908H90.6115C89.7604 180.908 89.0025 181.447 88.7227 182.251L88.3158 183.42C88.1493 183.898 87.6981 184.219 87.1915 184.219C86.3591 184.219 85.7837 183.386 86.0779 182.608L90.4486 171.037C90.6844 170.413 91.2819 170 91.9492 170C92.616 170 93.2133 170.413 93.4494 171.036L97.8255 182.6C98.1215 183.382 97.5436 184.219 96.7073 184.219C96.1997 184.219 95.7474 183.898 95.5793 183.419L95.1673 182.246ZM90.5629 176.971C90.2307 177.922 90.9366 178.916 91.9439 178.916C92.9512 178.916 93.6571 177.922 93.3249 176.971C92.8682 175.664 91.0196 175.664 90.5629 176.971Z" fill="#F9FFF9"/>
<path d="M25.1673 182.246C24.8861 181.444 24.1294 180.908 23.2802 180.908H20.6115C19.7604 180.908 19.0025 181.447 18.7227 182.251L18.3158 183.42C18.1493 183.898 17.6981 184.219 17.1915 184.219C16.3591 184.219 15.7837 183.386 16.0779 182.608L20.4486 171.037C20.6844 170.413 21.2819 170 21.9491 170C22.616 170 23.2133 170.413 23.4494 171.036L27.8255 182.6C28.1215 183.382 27.5436 184.219 26.7073 184.219C26.1997 184.219 25.7474 183.898 25.5793 183.419L25.1673 182.246ZM20.5629 176.971C20.2307 177.922 20.9366 178.916 21.9439 178.916C22.9512 178.916 23.6571 177.922 23.3249 176.971C22.8682 175.664 21.0196 175.664 20.5629 176.971Z" fill="#F9FFF9"/>
</g>
<g id="7">
<path d="M25.8535 17.0891C25.8535 17.2403 25.822 17.3898 25.7611 17.5282L20.4657 29.5475C20.2859 29.9554 19.8822 30.2188 19.4364 30.2188C18.6158 30.2188 18.0714 29.3685 18.4148 28.6233L22.0464 20.7412C22.657 19.4161 21.689 17.9043 20.2299 17.9043H16.9521C16.4263 17.9043 16 17.478 16 16.9521C16 16.4263 16.4263 16 16.9521 16H24.7644C25.3659 16 25.8535 16.4876 25.8535 17.0891Z" fill="#F9FFF9"/>
<path d="M96.8535 17.0891C96.8535 17.2403 96.822 17.3898 96.7611 17.5282L91.4657 29.5475C91.2859 29.9554 90.8822 30.2188 90.4364 30.2188C89.6158 30.2188 89.0714 29.3685 89.4148 28.6233L93.0464 20.7412C93.657 19.4161 92.689 17.9043 91.2299 17.9043H87.9521C87.4263 17.9043 87 17.478 87 16.9521C87 16.4263 87.4263 16 87.9521 16H95.7644C96.3659 16 96.8535 16.4876 96.8535 17.0891Z" fill="#F9FFF9"/>
<path d="M96.8535 171.089C96.8535 171.24 96.822 171.39 96.7611 171.528L91.4657 183.547C91.2859 183.955 90.8822 184.219 90.4364 184.219C89.6158 184.219 89.0714 183.369 89.4148 182.623L93.0464 174.741C93.657 173.416 92.689 171.904 91.2299 171.904H87.9521C87.4263 171.904 87 171.478 87 170.952C87 170.426 87.4263 170 87.9521 170H95.7644C96.3659 170 96.8535 170.488 96.8535 171.089Z" fill="#F9FFF9"/>
<path d="M25.8535 171.089C25.8535 171.24 25.822 171.39 25.7611 171.528L20.4657 183.547C20.2859 183.955 19.8822 184.219 19.4364 184.219C18.6158 184.219 18.0714 183.369 18.4148 182.623L22.0464 174.741C22.657 173.416 21.689 171.904 20.2299 171.904H16.9521C16.4263 171.904 16 171.478 16 170.952C16 170.426 16.4263 170 16.9521 170H24.7644C25.3659 170 25.8535 170.488 25.8535 171.089Z" fill="#F9FFF9"/>
</g>
<g id="8">
<path d="M25.0039 19.9453C25.0039 20.6419 24.8249 21.2637 24.4668 21.8105C24.0266 22.4748 24.0561 23.65 24.5467 24.2779C24.6044 24.3517 24.6591 24.4277 24.7109 24.5059C25.1146 25.1048 25.3164 25.7819 25.3164 26.5371C25.3164 27.7871 24.8932 28.7799 24.0469 29.5156C23.2005 30.2448 22.0742 30.6094 20.668 30.6094C19.2552 30.6094 18.1224 30.2415 17.2695 29.5059C16.4232 28.7702 16 27.7806 16 26.5371C16 25.7754 16.2018 25.0918 16.6055 24.4863C16.6556 24.4111 16.7082 24.3381 16.7634 24.2672C17.2469 23.6458 17.2845 22.4669 16.8496 21.8105C16.498 21.2637 16.3223 20.6419 16.3223 19.9453C16.3223 18.7344 16.7129 17.7741 17.4941 17.0645C18.2754 16.3548 19.3301 16 20.6582 16C21.9928 16 23.0508 16.3548 23.832 17.0645C24.6133 17.7741 25.0039 18.7344 25.0039 19.9453ZM22.9434 26.4199C22.9434 25.7168 22.7318 25.1504 22.3086 24.7207C21.8919 24.2845 21.3385 24.0664 20.6484 24.0664C19.9583 24.0664 19.4049 24.2812 18.9883 24.7109C18.5781 25.1406 18.373 25.7103 18.373 26.4199C18.373 27.1165 18.5749 27.6732 18.9785 28.0898C19.3887 28.5065 19.9518 28.7148 20.668 28.7148C21.3841 28.7148 21.9408 28.513 22.3379 28.1094C22.7415 27.7057 22.9434 27.1426 22.9434 26.4199ZM22.6406 20.0332C22.6406 19.4147 22.4616 18.9069 22.1035 18.5098C21.7454 18.1061 21.2637 17.9043 20.6582 17.9043C20.0527 17.9043 19.5742 18.0964 19.2227 18.4805C18.8711 18.8581 18.6953 19.3757 18.6953 20.0332C18.6953 20.6842 18.8711 21.2018 19.2227 21.5859C19.5807 21.9701 20.0625 22.1621 20.668 22.1621C21.2734 22.1621 21.752 21.9701 22.1035 21.5859C22.4616 21.2018 22.6406 20.6842 22.6406 20.0332Z" fill="#F9FFF9"/>
<path d="M25.0039 173.945C25.0039 174.642 24.8249 175.264 24.4668 175.811C24.0266 176.475 24.0561 177.65 24.5467 178.278C24.6044 178.352 24.6591 178.428 24.7109 178.506C25.1146 179.105 25.3164 179.782 25.3164 180.537C25.3164 181.787 24.8932 182.78 24.0469 183.516C23.2005 184.245 22.0742 184.609 20.668 184.609C19.2552 184.609 18.1224 184.242 17.2695 183.506C16.4232 182.77 16 181.781 16 180.537C16 179.775 16.2018 179.092 16.6055 178.486C16.6556 178.411 16.7082 178.338 16.7634 178.267C17.2469 177.646 17.2845 176.467 16.8496 175.811C16.498 175.264 16.3223 174.642 16.3223 173.945C16.3223 172.734 16.7129 171.774 17.4941 171.064C18.2754 170.355 19.3301 170 20.6582 170C21.9928 170 23.0508 170.355 23.832 171.064C24.6133 171.774 25.0039 172.734 25.0039 173.945ZM22.9434 180.42C22.9434 179.717 22.7318 179.15 22.3086 178.721C21.8919 178.285 21.3385 178.066 20.6484 178.066C19.9583 178.066 19.4049 178.281 18.9883 178.711C18.5781 179.141 18.373 179.71 18.373 180.42C18.373 181.117 18.5749 181.673 18.9785 182.09C19.3887 182.507 19.9518 182.715 20.668 182.715C21.3841 182.715 21.9408 182.513 22.3379 182.109C22.7415 181.706 22.9434 181.143 22.9434 180.42ZM22.6406 174.033C22.6406 173.415 22.4616 172.907 22.1035 172.51C21.7454 172.106 21.2637 171.904 20.6582 171.904C20.0527 171.904 19.5742 172.096 19.2227 172.48C18.8711 172.858 18.6953 173.376 18.6953 174.033C18.6953 174.684 18.8711 175.202 19.2227 175.586C19.5807 175.97 20.0625 176.162 20.668 176.162C21.2734 176.162 21.752 175.97 22.1035 175.586C22.4616 175.202 22.6406 174.684 22.6406 174.033Z" fill="#F9FFF9"/>
<path d="M97.0039 19.9453C97.0039 20.6419 96.8249 21.2637 96.4668 21.8105C96.0266 22.4748 96.0561 23.65 96.5467 24.2779C96.6044 24.3517 96.6591 24.4277 96.7109 24.5059C97.1146 25.1048 97.3164 25.7819 97.3164 26.5371C97.3164 27.7871 96.8932 28.7799 96.0469 29.5156C95.2005 30.2448 94.0742 30.6094 92.668 30.6094C91.2552 30.6094 90.1224 30.2415 89.2695 29.5059C88.4232 28.7702 88 27.7806 88 26.5371C88 25.7754 88.2018 25.0918 88.6055 24.4863C88.6556 24.4111 88.7082 24.3381 88.7634 24.2672C89.2469 23.6458 89.2845 22.4669 88.8496 21.8105C88.498 21.2637 88.3223 20.6419 88.3223 19.9453C88.3223 18.7344 88.7129 17.7741 89.4941 17.0645C90.2754 16.3548 91.3301 16 92.6582 16C93.9928 16 95.0508 16.3548 95.832 17.0645C96.6133 17.7741 97.0039 18.7344 97.0039 19.9453ZM94.9434 26.4199C94.9434 25.7168 94.7318 25.1504 94.3086 24.7207C93.8919 24.2845 93.3385 24.0664 92.6484 24.0664C91.9583 24.0664 91.4049 24.2812 90.9883 24.7109C90.5781 25.1406 90.373 25.7103 90.373 26.4199C90.373 27.1165 90.5749 27.6732 90.9785 28.0898C91.3887 28.5065 91.9518 28.7148 92.668 28.7148C93.3841 28.7148 93.9408 28.513 94.3379 28.1094C94.7415 27.7057 94.9434 27.1426 94.9434 26.4199ZM94.6406 20.0332C94.6406 19.4147 94.4616 18.9069 94.1035 18.5098C93.7454 18.1061 93.2637 17.9043 92.6582 17.9043C92.0527 17.9043 91.5742 18.0964 91.2227 18.4805C90.8711 18.8581 90.6953 19.3757 90.6953 20.0332C90.6953 20.6842 90.8711 21.2018 91.2227 21.5859C91.5807 21.9701 92.0625 22.1621 92.668 22.1621C93.2734 22.1621 93.752 21.9701 94.1035 21.5859C94.4616 21.2018 94.6406 20.6842 94.6406 20.0332Z" fill="#F9FFF9"/>
<path d="M97.0039 173.945C97.0039 174.642 96.8249 175.264 96.4668 175.811C96.0266 176.475 96.0561 177.65 96.5467 178.278C96.6044 178.352 96.6591 178.428 96.7109 178.506C97.1146 179.105 97.3164 179.782 97.3164 180.537C97.3164 181.787 96.8932 182.78 96.0469 183.516C95.2005 184.245 94.0742 184.609 92.668 184.609C91.2552 184.609 90.1224 184.242 89.2695 183.506C88.4232 182.77 88 181.781 88 180.537C88 179.775 88.2018 179.092 88.6055 178.486C88.6556 178.411 88.7082 178.338 88.7634 178.267C89.2469 177.646 89.2845 176.467 88.8496 175.811C88.498 175.264 88.3223 174.642 88.3223 173.945C88.3223 172.734 88.7129 171.774 89.4941 171.064C90.2754 170.355 91.3301 170 92.6582 170C93.9928 170 95.0508 170.355 95.832 171.064C96.6133 171.774 97.0039 172.734 97.0039 173.945ZM94.9434 180.42C94.9434 179.717 94.7318 179.15 94.3086 178.721C93.8919 178.285 93.3385 178.066 92.6484 178.066C91.9583 178.066 91.4049 178.281 90.9883 178.711C90.5781 179.141 90.373 179.71 90.373 180.42C90.373 181.117 90.5749 181.673 90.9785 182.09C91.3887 182.507 91.9518 182.715 92.668 182.715C93.3841 182.715 93.9408 182.513 94.3379 182.109C94.7415 181.706 94.9434 181.143 94.9434 180.42ZM94.6406 174.033C94.6406 173.415 94.4616 172.907 94.1035 172.51C93.7454 172.106 93.2637 171.904 92.6582 171.904C92.0527 171.904 91.5742 172.096 91.2227 172.48C90.8711 172.858 90.6953 173.376 90.6953 174.033C90.6953 174.684 90.8711 175.202 91.2227 175.586C91.5807 175.97 92.0625 176.162 92.668 176.162C93.2734 176.162 93.752 175.97 94.1035 175.586C94.4616 175.202 94.6406 174.684 94.6406 174.033Z" fill="#F9FFF9"/>
</g>
<g id="9">
<path d="M21.7913 27.3465C22.5345 26.5888 21.1629 25.7266 20.1016 25.7266C18.8516 25.7266 17.8555 25.2904 17.1133 24.418C16.3711 23.5391 16 22.3867 16 20.9609C16 20.0234 16.1888 19.1738 16.5664 18.4121C16.944 17.6504 17.4811 17.0579 18.1777 16.6348C18.8743 16.2116 19.6816 16 20.5996 16C22.0319 16 23.168 16.5339 24.0078 17.6016C24.8477 18.6693 25.2676 20.0983 25.2676 21.8887V22.5527C25.2676 25.1178 24.6882 27.0742 23.5293 28.4219C22.3704 29.7695 20.6419 30.4531 18.3438 30.4727C18.1873 30.4727 18.0605 30.3459 18.0605 30.1895V28.8516C18.0605 28.6628 18.2136 28.5098 18.4023 28.5098C19.8021 28.4902 20.8763 28.1549 21.625 27.5039C21.6824 27.4535 21.7378 27.4011 21.7913 27.3465ZM20.5996 23.8711C21.0749 23.8711 21.5208 23.7344 21.9375 23.4609C22.234 23.2663 22.4827 23.019 22.6837 22.7189C22.8482 22.4731 22.9043 22.1747 22.9043 21.879V21.4004C22.9043 20.3522 22.6895 19.5091 22.2598 18.8711C21.8301 18.2331 21.2734 17.9141 20.5898 17.9141C19.9062 17.9141 19.3594 18.1973 18.9492 18.7637C18.5456 19.3236 18.3438 20.0332 18.3438 20.8926C18.3438 21.7845 18.5488 22.5039 18.959 23.0508C19.3691 23.5977 19.916 23.8711 20.5996 23.8711Z" fill="#F9FFF9"/>
<path d="M93.7913 27.3465C94.5345 26.5888 93.1629 25.7266 92.1016 25.7266C90.8516 25.7266 89.8555 25.2904 89.1133 24.418C88.3711 23.5391 88 22.3867 88 20.9609C88 20.0234 88.1888 19.1738 88.5664 18.4121C88.944 17.6504 89.4811 17.0579 90.1777 16.6348C90.8743 16.2116 91.6816 16 92.5996 16C94.0319 16 95.168 16.5339 96.0078 17.6016C96.8477 18.6693 97.2676 20.0983 97.2676 21.8887V22.5527C97.2676 25.1178 96.6882 27.0742 95.5293 28.4219C94.3704 29.7695 92.6419 30.4531 90.3438 30.4727C90.1873 30.4727 90.0605 30.3459 90.0605 30.1895V28.8516C90.0605 28.6628 90.2136 28.5098 90.4023 28.5098C91.8021 28.4902 92.8763 28.1549 93.625 27.5039C93.6824 27.4535 93.7378 27.4011 93.7913 27.3465ZM92.5996 23.8711C93.0749 23.8711 93.5208 23.7344 93.9375 23.4609C94.234 23.2663 94.4827 23.019 94.6837 22.7189C94.8482 22.4731 94.9043 22.1747 94.9043 21.879V21.4004C94.9043 20.3522 94.6895 19.5091 94.2598 18.8711C93.8301 18.2331 93.2734 17.9141 92.5898 17.9141C91.9062 17.9141 91.3594 18.1973 90.9492 18.7637C90.5456 19.3236 90.3438 20.0332 90.3438 20.8926C90.3438 21.7845 90.5488 22.5039 90.959 23.0508C91.3691 23.5977 91.916 23.8711 92.5996 23.8711Z" fill="#F9FFF9"/>
<path d="M21.7913 181.347C22.5345 180.589 21.1629 179.727 20.1016 179.727C18.8516 179.727 17.8555 179.29 17.1133 178.418C16.3711 177.539 16 176.387 16 174.961C16 174.023 16.1888 173.174 16.5664 172.412C16.944 171.65 17.4811 171.058 18.1777 170.635C18.8743 170.212 19.6816 170 20.5996 170C22.0319 170 23.168 170.534 24.0078 171.602C24.8477 172.669 25.2676 174.098 25.2676 175.889V176.553C25.2676 179.118 24.6882 181.074 23.5293 182.422C22.3704 183.77 20.6419 184.453 18.3438 184.473C18.1873 184.473 18.0605 184.346 18.0605 184.189V182.852C18.0605 182.663 18.2136 182.51 18.4023 182.51C19.8021 182.49 20.8763 182.155 21.625 181.504C21.6824 181.454 21.7378 181.401 21.7913 181.347ZM20.5996 177.871C21.0749 177.871 21.5208 177.734 21.9375 177.461C22.234 177.266 22.4827 177.019 22.6837 176.719C22.8482 176.473 22.9043 176.175 22.9043 175.879V175.4C22.9043 174.352 22.6895 173.509 22.2598 172.871C21.8301 172.233 21.2734 171.914 20.5898 171.914C19.9062 171.914 19.3594 172.197 18.9492 172.764C18.5456 173.324 18.3438 174.033 18.3438 174.893C18.3438 175.785 18.5488 176.504 18.959 177.051C19.3691 177.598 19.916 177.871 20.5996 177.871Z" fill="#F9FFF9"/>
<path d="M93.7913 181.347C94.5345 180.589 93.1629 179.727 92.1016 179.727C90.8516 179.727 89.8555 179.29 89.1133 178.418C88.3711 177.539 88 176.387 88 174.961C88 174.023 88.1888 173.174 88.5664 172.412C88.944 171.65 89.4811 171.058 90.1777 170.635C90.8743 170.212 91.6816 170 92.5996 170C94.0319 170 95.168 170.534 96.0078 171.602C96.8477 172.669 97.2676 174.098 97.2676 175.889V176.553C97.2676 179.118 96.6882 181.074 95.5293 182.422C94.3704 183.77 92.6419 184.453 90.3438 184.473C90.1873 184.473 90.0605 184.346 90.0605 184.189V182.852C90.0605 182.663 90.2136 182.51 90.4023 182.51C91.8021 182.49 92.8763 182.155 93.625 181.504C93.6824 181.454 93.7378 181.401 93.7913 181.347ZM92.5996 177.871C93.0749 177.871 93.5208 177.734 93.9375 177.461C94.234 177.266 94.4827 177.019 94.6837 176.719C94.8482 176.473 94.9043 176.175 94.9043 175.879V175.4C94.9043 174.352 94.6895 173.509 94.2598 172.871C93.8301 172.233 93.2734 171.914 92.5898 171.914C91.9062 171.914 91.3594 172.197 90.9492 172.764C90.5456 173.324 90.3438 174.033 90.3438 174.893C90.3438 175.785 90.5488 176.504 90.959 177.051C91.3691 177.598 91.916 177.871 92.5996 177.871Z" fill="#F9FFF9"/>
</g>
<g id="10">
<path d="M16.8496 29.2324C16.8496 29.885 16.3206 30.4141 15.668 30.4141C15.0154 30.4141 14.4863 29.885 14.4863 29.2324V20.8402C14.4863 19.9369 13.5979 19.3017 12.7432 19.5938L12.2639 19.7575C11.6442 19.9693 11 19.5087 11 18.8538C11 18.4535 11.2496 18.0957 11.6253 17.9574L16.5039 16.1623C16.5323 16.1518 16.5624 16.1465 16.5926 16.1465C16.7346 16.1465 16.8496 16.2615 16.8496 16.4034V29.2324Z" fill="#F9FFF9"/>
<path d="M31.0586 24.4277C31.0586 26.472 30.6745 28.015 29.9062 29.0566C29.1445 30.0918 27.9824 30.6094 26.4199 30.6094C24.8835 30.6094 23.7246 30.1048 22.9434 29.0957C22.1686 28.0801 21.7715 26.5794 21.752 24.5938V22.1328C21.752 20.0885 22.1328 18.5553 22.8945 17.5332C23.6628 16.5111 24.8314 16 26.4004 16C27.9564 16 29.1152 16.498 29.877 17.4941C30.6452 18.4902 31.0391 19.9811 31.0586 21.9668V24.4277ZM28.6855 21.7715C28.6855 20.4368 28.5033 19.4603 28.1387 18.8418C27.7741 18.2168 27.1947 17.9043 26.4004 17.9043C25.6257 17.9043 25.056 18.2005 24.6914 18.793C24.3268 19.3789 24.1348 20.2969 24.1152 21.5469V24.7695C24.1152 26.0977 24.3008 27.0872 24.6719 27.7383C25.043 28.3893 25.6257 28.7148 26.4199 28.7148C27.1816 28.7148 27.7448 28.4154 28.1094 27.8164C28.474 27.2109 28.666 26.2669 28.6855 24.9844V21.7715Z" fill="#F9FFF9"/>
<path d="M16.8496 183.232C16.8496 183.885 16.3206 184.414 15.668 184.414C15.0154 184.414 14.4863 183.885 14.4863 183.232V174.84C14.4863 173.937 13.5979 173.302 12.7432 173.594L12.2639 173.758C11.6442 173.969 11 173.509 11 172.854C11 172.453 11.2496 172.096 11.6253 171.957L16.5039 170.162C16.5323 170.152 16.5624 170.146 16.5926 170.146C16.7346 170.146 16.8496 170.262 16.8496 170.403V183.232Z" fill="#F9FFF9"/>
<path d="M31.0586 178.428C31.0586 180.472 30.6745 182.015 29.9062 183.057C29.1445 184.092 27.9824 184.609 26.4199 184.609C24.8835 184.609 23.7246 184.105 22.9434 183.096C22.1686 182.08 21.7715 180.579 21.752 178.594V176.133C21.752 174.089 22.1328 172.555 22.8945 171.533C23.6628 170.511 24.8314 170 26.4004 170C27.9564 170 29.1152 170.498 29.877 171.494C30.6452 172.49 31.0391 173.981 31.0586 175.967V178.428ZM28.6855 175.771C28.6855 174.437 28.5033 173.46 28.1387 172.842C27.7741 172.217 27.1947 171.904 26.4004 171.904C25.6257 171.904 25.056 172.201 24.6914 172.793C24.3268 173.379 24.1348 174.297 24.1152 175.547V178.77C24.1152 180.098 24.3008 181.087 24.6719 181.738C25.043 182.389 25.6257 182.715 26.4199 182.715C27.1816 182.715 27.7448 182.415 28.1094 181.816C28.474 181.211 28.666 180.267 28.6855 178.984V175.771Z" fill="#F9FFF9"/>
<path d="M88.8496 29.2324C88.8496 29.885 88.3206 30.4141 87.668 30.4141C87.0154 30.4141 86.4863 29.885 86.4863 29.2324V20.8402C86.4863 19.9369 85.5979 19.3017 84.7432 19.5938L84.2639 19.7575C83.6442 19.9693 83 19.5087 83 18.8538C83 18.4535 83.2496 18.0957 83.6253 17.9574L88.5039 16.1623C88.5323 16.1518 88.5624 16.1465 88.5927 16.1465C88.7346 16.1465 88.8496 16.2615 88.8496 16.4034V29.2324Z" fill="#F9FFF9"/>
<path d="M103.059 24.4277C103.059 26.472 102.674 28.015 101.906 29.0566C101.145 30.0918 99.9824 30.6094 98.4199 30.6094C96.8835 30.6094 95.7246 30.1048 94.9434 29.0957C94.1686 28.0801 93.7715 26.5794 93.752 24.5938V22.1328C93.752 20.0885 94.1328 18.5553 94.8945 17.5332C95.6628 16.5111 96.8314 16 98.4004 16C99.9564 16 101.115 16.498 101.877 17.4941C102.645 18.4902 103.039 19.9811 103.059 21.9668V24.4277ZM100.686 21.7715C100.686 20.4368 100.503 19.4603 100.139 18.8418C99.7741 18.2168 99.1947 17.9043 98.4004 17.9043C97.6257 17.9043 97.056 18.2005 96.6914 18.793C96.3268 19.3789 96.1348 20.2969 96.1152 21.5469V24.7695C96.1152 26.0977 96.3008 27.0872 96.6719 27.7383C97.043 28.3893 97.6257 28.7148 98.4199 28.7148C99.1816 28.7148 99.7448 28.4154 100.109 27.8164C100.474 27.2109 100.666 26.2669 100.686 24.9844V21.7715Z" fill="#F9FFF9"/>
<path d="M88.8496 183.232C88.8496 183.885 88.3206 184.414 87.668 184.414C87.0154 184.414 86.4863 183.885 86.4863 183.232V174.84C86.4863 173.937 85.5979 173.302 84.7432 173.594L84.2639 173.758C83.6442 173.969 83 173.509 83 172.854C83 172.453 83.2496 172.096 83.6253 171.957L88.5039 170.162C88.5323 170.152 88.5624 170.146 88.5927 170.146C88.7346 170.146 88.8496 170.262 88.8496 170.403V183.232Z" fill="#F9FFF9"/>
<path d="M103.059 178.428C103.059 180.472 102.674 182.015 101.906 183.057C101.145 184.092 99.9824 184.609 98.4199 184.609C96.8835 184.609 95.7246 184.105 94.9434 183.096C94.1686 182.08 93.7715 180.579 93.752 178.594V176.133C93.752 174.089 94.1328 172.555 94.8945 171.533C95.6628 170.511 96.8314 170 98.4004 170C99.9564 170 101.115 170.498 101.877 171.494C102.645 172.49 103.039 173.981 103.059 175.967V178.428ZM100.686 175.771C100.686 174.437 100.503 173.46 100.139 172.842C99.7741 172.217 99.1947 171.904 98.4004 171.904C97.6257 171.904 97.056 172.201 96.6914 172.793C96.3268 173.379 96.1348 174.297 96.1152 175.547V178.77C96.1152 180.098 96.3008 181.087 96.6719 181.738C97.043 182.389 97.6257 182.715 98.4199 182.715C99.1816 182.715 99.7448 182.415 100.109 181.816C100.474 181.211 100.666 180.267 100.686 178.984V175.771Z" fill="#F9FFF9"/>
</g>
<g id="jack">
<path d="M22.7205 17.2305C22.7205 16.5509 23.2714 16 23.951 16C24.6306 16 25.1815 16.5509 25.1815 17.2305V25.9707C25.1815 27.3314 24.755 28.4121 23.9022 29.2129C23.0558 30.0137 21.936 30.4141 20.5428 30.4141C19.0584 30.4141 17.9126 30.0397 17.1053 29.291C16.5633 28.7884 16.2033 28.1537 16.0252 27.387C15.8714 26.7251 16.4453 26.166 17.1248 26.166C17.8044 26.166 18.2977 26.7471 18.5742 27.3679C18.661 27.5627 18.7736 27.7318 18.9119 27.875C19.2895 28.2526 19.8332 28.4414 20.5428 28.4414C21.2069 28.4414 21.7342 28.2233 22.1248 27.7871C22.522 27.3444 22.7205 26.7357 22.7205 25.9609V17.2305Z" fill="#F9FFF9"/>
<path d="M94.7205 17.2305C94.7205 16.5509 95.2714 16 95.951 16C96.6306 16 97.1815 16.5509 97.1815 17.2305V25.9707C97.1815 27.3314 96.755 28.4121 95.9022 29.2129C95.0558 30.0137 93.936 30.4141 92.5428 30.4141C91.0584 30.4141 89.9126 30.0397 89.1053 29.291C88.5633 28.7884 88.2033 28.1537 88.0252 27.387C87.8714 26.7251 88.4453 26.166 89.1248 26.166C89.8044 26.166 90.2977 26.7471 90.5742 27.3679C90.661 27.5627 90.7736 27.7318 90.9119 27.875C91.2895 28.2526 91.8332 28.4414 92.5428 28.4414C93.2069 28.4414 93.7342 28.2233 94.1248 27.7871C94.522 27.3444 94.7205 26.7357 94.7205 25.9609V17.2305Z" fill="#F9FFF9"/>
<path d="M22.7205 171.23C22.7205 170.551 23.2714 170 23.951 170C24.6306 170 25.1815 170.551 25.1815 171.23V179.971C25.1815 181.331 24.755 182.412 23.9022 183.213C23.0558 184.014 21.936 184.414 20.5428 184.414C19.0584 184.414 17.9126 184.04 17.1053 183.291C16.5633 182.788 16.2033 182.154 16.0252 181.387C15.8714 180.725 16.4453 180.166 17.1248 180.166C17.8044 180.166 18.2977 180.747 18.5742 181.368C18.661 181.563 18.7736 181.732 18.9119 181.875C19.2895 182.253 19.8332 182.441 20.5428 182.441C21.2069 182.441 21.7342 182.223 22.1248 181.787C22.522 181.344 22.7205 180.736 22.7205 179.961V171.23Z" fill="#F9FFF9"/>
<path d="M94.7205 171.23C94.7205 170.551 95.2714 170 95.951 170C96.6306 170 97.1815 170.551 97.1815 171.23V179.971C97.1815 181.331 96.755 182.412 95.9022 183.213C95.0558 184.014 93.936 184.414 92.5428 184.414C91.0584 184.414 89.9126 184.04 89.1053 183.291C88.5633 182.788 88.2033 182.154 88.0252 181.387C87.8714 180.725 88.4453 180.166 89.1248 180.166C89.8044 180.166 90.2977 180.747 90.5742 181.368C90.661 181.563 90.7736 181.732 90.9119 181.875C91.2895 182.253 91.8332 182.441 92.5428 182.441C93.2069 182.441 93.7342 182.223 94.1248 181.787C94.522 181.344 94.7205 180.736 94.7205 179.961V171.23Z" fill="#F9FFF9"/>
</g>
<g id="queen">
<path d="M26.8066 22.6758C26.8066 24.0234 26.5918 25.1921 26.1621 26.1816C25.9746 26.6172 25.7532 27.0132 25.498 27.3695C25.0228 28.033 25.0071 29.0185 25.6507 29.5204L25.8211 29.6534C26.3404 30.0584 26.3683 30.8341 25.8793 31.2753C25.4956 31.6216 24.9181 31.6405 24.5126 31.32L22.925 30.0653C22.4579 29.6961 21.8507 29.5713 21.2559 29.6009C21.142 29.6065 21.0261 29.6094 20.9082 29.6094C19.7624 29.6094 18.737 29.3294 17.832 28.7695C16.9336 28.2031 16.237 27.3991 15.7422 26.3574C15.2539 25.3158 15.0065 24.1146 15 22.7539V21.9531C15 20.5664 15.2441 19.3424 15.7324 18.2812C16.2272 17.2201 16.9206 16.4095 17.8125 15.8496C18.7109 15.2832 19.7363 15 20.8887 15C22.0605 15 23.0924 15.2799 23.9844 15.8398C24.8828 16.3932 25.5762 17.194 26.0645 18.2422C26.5527 19.2839 26.8001 20.498 26.8066 21.8848V22.6758ZM24.3262 21.9336C24.3262 20.332 24.0267 19.1178 23.4277 18.291C22.8288 17.4642 21.9824 17.0508 20.8887 17.0508C19.8275 17.0508 18.9941 17.4707 18.3887 18.3105C17.7897 19.1439 17.4837 20.3223 17.4707 21.8457V22.6758C17.4707 24.2122 17.7702 25.4134 18.3691 26.2793C18.9746 27.1452 19.821 27.5781 20.9082 27.5781C22.0085 27.5781 22.8516 27.1615 23.4375 26.3281C24.0299 25.4948 24.3262 24.2773 24.3262 22.6758V21.9336Z" fill="#F9FFF9"/>
<path d="M26.8066 176.676C26.8066 178.023 26.5918 179.192 26.1621 180.182C25.9746 180.617 25.7532 181.013 25.498 181.369C25.0228 182.033 25.0071 183.018 25.6507 183.52L25.8211 183.653C26.3404 184.058 26.3683 184.834 25.8793 185.275C25.4956 185.622 24.9181 185.64 24.5126 185.32L22.925 184.065C22.4579 183.696 21.8507 183.571 21.2559 183.601C21.142 183.607 21.0261 183.609 20.9082 183.609C19.7624 183.609 18.737 183.329 17.832 182.77C16.9336 182.203 16.237 181.399 15.7422 180.357C15.2539 179.316 15.0065 178.115 15 176.754V175.953C15 174.566 15.2441 173.342 15.7324 172.281C16.2272 171.22 16.9206 170.41 17.8125 169.85C18.7109 169.283 19.7363 169 20.8887 169C22.0605 169 23.0924 169.28 23.9844 169.84C24.8828 170.393 25.5762 171.194 26.0645 172.242C26.5527 173.284 26.8001 174.498 26.8066 175.885V176.676ZM24.3262 175.934C24.3262 174.332 24.0267 173.118 23.4277 172.291C22.8288 171.464 21.9824 171.051 20.8887 171.051C19.8275 171.051 18.9941 171.471 18.3887 172.311C17.7897 173.144 17.4837 174.322 17.4707 175.846V176.676C17.4707 178.212 17.7702 179.413 18.3691 180.279C18.9746 181.145 19.821 181.578 20.9082 181.578C22.0085 181.578 22.8516 181.161 23.4375 180.328C24.0299 179.495 24.3262 178.277 24.3262 176.676V175.934Z" fill="#F9FFF9"/>
<path d="M98.8066 22.6758C98.8066 24.0234 98.5918 25.1921 98.1621 26.1816C97.9746 26.6172 97.7532 27.0132 97.498 27.3695C97.0228 28.033 97.0071 29.0185 97.6507 29.5204L97.8211 29.6534C98.3404 30.0584 98.3683 30.8341 97.8793 31.2753C97.4956 31.6216 96.9181 31.6405 96.5126 31.32L94.925 30.0653C94.4579 29.6961 93.8507 29.5713 93.2559 29.6009C93.142 29.6065 93.0261 29.6094 92.9082 29.6094C91.7624 29.6094 90.737 29.3294 89.832 28.7695C88.9336 28.2031 88.237 27.3991 87.7422 26.3574C87.2539 25.3158 87.0065 24.1146 87 22.7539V21.9531C87 20.5664 87.2441 19.3424 87.7324 18.2812C88.2272 17.2201 88.9206 16.4095 89.8125 15.8496C90.7109 15.2832 91.7363 15 92.8887 15C94.0605 15 95.0924 15.2799 95.9844 15.8398C96.8828 16.3932 97.5762 17.194 98.0645 18.2422C98.5527 19.2839 98.8001 20.498 98.8066 21.8848V22.6758ZM96.3262 21.9336C96.3262 20.332 96.0267 19.1178 95.4277 18.291C94.8288 17.4642 93.9824 17.0508 92.8887 17.0508C91.8275 17.0508 90.9941 17.4707 90.3887 18.3105C89.7897 19.1439 89.4837 20.3223 89.4707 21.8457V22.6758C89.4707 24.2122 89.7702 25.4134 90.3691 26.2793C90.9746 27.1452 91.821 27.5781 92.9082 27.5781C94.0085 27.5781 94.8516 27.1615 95.4375 26.3281C96.0299 25.4948 96.3262 24.2773 96.3262 22.6758V21.9336Z" fill="#F9FFF9"/>
<path d="M98.8066 176.676C98.8066 178.023 98.5918 179.192 98.1621 180.182C97.9746 180.617 97.7532 181.013 97.498 181.369C97.0228 182.033 97.0071 183.018 97.6507 183.52L97.8211 183.653C98.3404 184.058 98.3683 184.834 97.8793 185.275C97.4956 185.622 96.9181 185.64 96.5126 185.32L94.925 184.065C94.4579 183.696 93.8507 183.571 93.2559 183.601C93.142 183.607 93.0261 183.609 92.9082 183.609C91.7624 183.609 90.737 183.329 89.832 182.77C88.9336 182.203 88.237 181.399 87.7422 180.357C87.2539 179.316 87.0065 178.115 87 176.754V175.953C87 174.566 87.2441 173.342 87.7324 172.281C88.2272 171.22 88.9206 170.41 89.8125 169.85C90.7109 169.283 91.7363 169 92.8887 169C94.0605 169 95.0924 169.28 95.9844 169.84C96.8828 170.393 97.5762 171.194 98.0645 172.242C98.5527 173.284 98.8001 174.498 98.8066 175.885V176.676ZM96.3262 175.934C96.3262 174.332 96.0267 173.118 95.4277 172.291C94.8288 171.464 93.9824 171.051 92.8887 171.051C91.8275 171.051 90.9941 171.471 90.3887 172.311C89.7897 173.144 89.4837 174.322 89.4707 175.846V176.676C89.4707 178.212 89.7702 179.413 90.3691 180.279C90.9746 181.145 91.821 181.578 92.9082 181.578C94.0085 181.578 94.8516 181.161 95.4375 180.328C96.0299 179.495 96.3262 178.277 96.3262 176.676V175.934Z" fill="#F9FFF9"/>
</g>
<g id="king">
<path d="M20.0969 25.5337C19.5737 24.7822 18.4918 24.7022 17.8637 25.3684C17.6113 25.6361 17.4707 25.9901 17.4707 26.358V28.9834C17.4707 29.6657 16.9176 30.2188 16.2354 30.2188C15.5531 30.2188 15 29.6657 15 28.9834V17.2354C15 16.5531 15.5531 16 16.2354 16C16.9176 16 17.4707 16.5531 17.4707 17.2354V20.4966C17.4707 21.2215 18.3818 21.544 18.8379 20.9805L22.655 16.4107C22.8724 16.1504 23.194 16 23.5332 16C24.505 16 25.0344 17.135 24.4098 17.8795L21.6926 21.1191C21.1094 21.8145 21.0675 22.8154 21.5906 23.5571L24.9602 28.3347C25.5187 29.1264 24.9524 30.2188 23.9835 30.2188C23.5925 30.2188 23.2262 30.0275 23.0027 29.7065L20.0969 25.5337Z" fill="#F9FFF9"/>
<path d="M20.0969 179.534C19.5737 178.782 18.4918 178.702 17.8637 179.368C17.6113 179.636 17.4707 179.99 17.4707 180.358V182.983C17.4707 183.666 16.9176 184.219 16.2354 184.219C15.5531 184.219 15 183.666 15 182.983V171.235C15 170.553 15.5531 170 16.2354 170C16.9176 170 17.4707 170.553 17.4707 171.235V174.497C17.4707 175.222 18.3818 175.544 18.8379 174.98L22.655 170.411C22.8724 170.15 23.194 170 23.5332 170C24.505 170 25.0344 171.135 24.4098 171.88L21.6926 175.119C21.1094 175.814 21.0675 176.815 21.5906 177.557L24.9602 182.335C25.5187 183.126 24.9524 184.219 23.9835 184.219C23.5925 184.219 23.2262 184.027 23.0027 183.707L20.0969 179.534Z" fill="#F9FFF9"/>
<path d="M93.0969 25.5337C92.5737 24.7822 91.4918 24.7022 90.8636 25.3684C90.6113 25.6361 90.4707 25.9901 90.4707 26.358V28.9834C90.4707 29.6657 89.9176 30.2188 89.2354 30.2188C88.5531 30.2188 88 29.6657 88 28.9834V17.2354C88 16.5531 88.5531 16 89.2354 16C89.9176 16 90.4707 16.5531 90.4707 17.2354V20.4966C90.4707 21.2215 91.3818 21.544 91.8379 20.9805L95.655 16.4107C95.8724 16.1504 96.194 16 96.5332 16C97.505 16 98.0344 17.135 97.4098 17.8795L94.6926 21.1191C94.1094 21.8145 94.0675 22.8154 94.5906 23.5571L97.9602 28.3347C98.5187 29.1264 97.9524 30.2188 96.9835 30.2188C96.5925 30.2188 96.2262 30.0275 96.0027 29.7065L93.0969 25.5337Z" fill="#F9FFF9"/>
<path d="M93.0969 179.534C92.5737 178.782 91.4918 178.702 90.8636 179.368C90.6113 179.636 90.4707 179.99 90.4707 180.358V182.983C90.4707 183.666 89.9176 184.219 89.2354 184.219C88.5531 184.219 88 183.666 88 182.983V171.235C88 170.553 88.5531 170 89.2354 170C89.9176 170 90.4707 170.553 90.4707 171.235V174.497C90.4707 175.222 91.3818 175.544 91.8379 174.98L95.655 170.411C95.8724 170.15 96.194 170 96.5332 170C97.505 170 98.0344 171.135 97.4098 171.88L94.6926 175.119C94.1094 175.814 94.0675 176.815 94.5906 177.557L97.9602 182.335C98.5187 183.126 97.9524 184.219 96.9835 184.219C96.5925 184.219 96.2262 184.027 96.0027 183.707L93.0969 179.534Z" fill="#F9FFF9"/>
</g>
</g>
<g id="family">
<g id="heart">
<path id="heart_2" d="M38.351 86.1324C46.0563 75.8761 56.5 83.503 56.5 87.4471C56.5 83.503 66.9437 75.8759 74.649 86.1323C85.0199 99.9367 57.7964 111.769 56.5 119C55.2036 111.769 27.9801 99.9369 38.351 86.1324Z" fill="#F9FFF9"/>
</g>
<g id="diamond">
<path id="diamond_2" d="M42.9723 96.0202C47.3012 92.1657 53.7945 79.0673 56.5 73C59.2055 79.0673 65.6988 92.1657 70.0277 96.0202C75.4388 100.838 56.5 108.869 56.5 126C56.5 108.869 37.5612 100.838 42.9723 96.0202Z" fill="#F9FFF9"/>
</g>
<g id="spade">
<path id="spade_2" d="M50.3095 122H56.5H62.6905C60.627 119.067 55.2 108.486 58.6667 108.486C67.6429 108.486 69.5 104.086 76 108.486C76 95.9143 56.5 83.0286 56.5 78C56.5 83.0286 37 95.9143 37 108.486C43.5 104.086 45.3571 108.486 54.3333 108.486C57.8 108.486 52.373 119.067 50.3095 122Z" fill="#F9FFF9"/>
</g>
<g id="club">
<path id="club_2" d="M50.3095 120.5H56.5L62.6905 120.5C60.627 117.567 55.2 106.986 58.6667 106.986H58.762C67.6878 106.986 74 106.986 74 99C74 93.8844 70 90 63.5 91.5C68.5 86 65 78 56.5 78C47.9414 78 44.5 86 49.5 91.5C43 90 39 93.8844 39 99C39 106.986 45.3122 106.986 54.238 106.986H54.3333C57.8 106.986 52.373 117.567 50.3095 120.5Z" fill="#F9FFF9"/>
</g>
</g>
</g>
</svg>
