<svg width="185" height="285" viewBox="0 0 185 285" fill="none" xmlns="http://www.w3.org/2000/svg">
<g id="deck">
<g id="Carte" filter="url(#filter0_d)">
<g id="Rectangle 21">
<path d="M36.2739 40.9682C36.2739 34.3408 41.6465 28.9682 48.2739 28.9682H92.6834H137.093C143.72 28.9682 149.093 34.3408 149.093 40.9682V202.356V217.651C149.093 224.278 143.72 229.651 137.093 229.651H48.2739C41.6465 229.651 36.2739 224.278 36.2739 217.651V129.309V40.9682Z" fill="#D6FFDA"/>
<path d="M142.854 28.9682H118.479C111.933 28.9682 108.242 40.699 110.653 46.7854C112.571 51.6279 112.599 57.0692 109.06 62.7619C100.942 75.8215 87.1929 75.8215 76.7599 77.5659C71.589 78.4305 72.9356 82.8492 78.1545 83.3478C94.4493 84.9045 112.929 89.9599 109.06 102.534C102.821 122.811 103.081 155.045 121.278 154.265C135.201 153.668 145.003 138.755 148.635 130.407C148.95 129.683 149.093 128.904 149.093 128.114V35.207C149.093 31.7614 146.3 28.9682 142.854 28.9682Z" fill="#D6FFDA"/>
</g>
<path id="Rectangle 23" d="M36.2739 141.586V220.105C36.2739 225.692 40.2415 230.866 45.7575 229.973C52.8175 228.829 59.9295 224.163 59.9295 211.454C59.9295 208.144 65.8533 167.482 66.3224 164.206C67.099 158.782 68.7818 153.457 70.8475 149.326C75.3384 140.344 66.8252 132.495 59.1137 128.011C55.8719 126.126 51.2651 127.271 47.6943 128.416C41.5656 130.382 36.2739 135.149 36.2739 141.586Z" fill="#FFD6D6"/>
<path id="Rectangle 22" d="M59.9295 115.532C64.3487 98.6351 57.33 92.6563 65.1285 82.7781C66.9482 80.4732 67.7945 76.2794 76.5664 76.2794C81.7599 76.2794 72.9356 82.8492 78.1545 83.3478C94.4493 84.9045 112.929 89.9598 109.06 102.534C102.821 122.811 103.081 155.045 121.278 154.265C135.201 153.668 145.003 138.755 148.635 130.407C148.95 129.683 149.093 128.904 149.093 128.114V194.82C149.093 199.427 146.461 203.669 142.066 205.054C135.891 207.002 127.336 208.775 118.938 208.075C103.341 206.775 105.941 188.578 83.5851 189.878C61.2293 191.178 63.8288 163.363 70.8475 149.326C74.4075 142.206 69.7959 135.798 63.8897 131.213C59.7294 127.984 58.5969 120.627 59.9295 115.532Z" fill="#89A3FF"/>
<path id="Rectangle 20" d="M138.107 28.9682H135.18C124.395 28.9682 114.754 53.6025 109.06 62.7619C103.811 71.2071 96.2061 74.1911 88.6663 75.7171C78.7828 77.7176 80.2127 82.996 90.062 85.1587C102.107 87.8035 111.99 93.0138 109.06 102.534C102.822 122.811 103.082 155.045 121.278 154.265C134.658 153.691 144.231 139.898 148.182 131.414C148.823 130.037 149.093 128.529 149.093 127.01V39.9541C149.093 33.8868 144.174 28.9682 138.107 28.9682Z" fill="#FFE589"/>
<path id="Rectangle 19" d="M89.7811 28.9682H48.2739C41.6465 28.9682 36.2739 34.3408 36.2739 40.9682V119.099C36.2739 124.985 40.7036 130.257 46.4036 128.789C52.0596 127.332 57.8147 123.618 59.9295 115.532C64.3487 98.6352 57.33 92.6563 65.1285 82.7781C72.9271 72.9 97.1026 81.9983 109.06 62.7619C117.817 48.6746 104.733 36.1267 95.2118 30.3823C93.5786 29.397 91.6885 28.9682 89.7811 28.9682Z" fill="#FF6161"/>
</g>
<path id="Trace" d="M160.5 0V285M0 247.5H184.5M25.5 0V285" stroke="#D3D3D3"/>
</g>
<defs>
<filter id="filter0_d" x="32.2739" y="28.9682" width="120.819" height="209.106" filterUnits="userSpaceOnUse" color-interpolation-filters="sRGB">
<feFlood flood-opacity="0" result="BackgroundImageFix"/>
<feColorMatrix in="SourceAlpha" type="matrix" values="0 0 0 0 0 0 0 0 0 0 0 0 0 0 0 0 0 0 127 0"/>
<feOffset dy="4"/>
<feGaussianBlur stdDeviation="2"/>
<feColorMatrix type="matrix" values="0 0 0 0 0 0 0 0 0 0 0 0 0 0 0 0 0 0 0.25 0"/>
<feBlend mode="normal" in2="BackgroundImageFix" result="effect1_dropShadow"/>
<feBlend mode="normal" in="SourceGraphic" in2="effect1_dropShadow" result="shape"/>
</filter>
</defs>
</svg>
