<svg width="40" height="40" viewBox="0 0 40 40" fill="none" xmlns="http://www.w3.org/2000/svg">
<g filter="url(#filter0_i)">
<path d="M20 0C8.954 0 0 8.954 0 20C0 28.887 5.801 36.411 13.82 39.016H26.18C34.199 36.411 40 28.887 40 20C40 8.954 31.046 0 20 0Z" fill="#B6B6B6"/>
<path opacity="0.05" d="M26.0095 37.9959L25.9995 32.1979C25.9995 31.2589 25.7795 30.3419 25.3575 29.5109C30.9985 28.3779 33.7435 25.0429 33.7435 19.3339C33.7435 17.0789 33.0785 15.0879 31.7675 13.4139C31.8675 13.0969 31.9415 12.7689 31.9875 12.4329C32.1755 11.0639 31.9645 10.1689 31.7945 9.4489L31.7675 9.3329C31.5815 8.5369 31.3585 7.9689 31.3495 7.9449L31.2385 7.6629L31.1275 7.3809L30.8255 7.3489L30.5225 7.3169C30.5225 7.3169 30.3235 7.2959 30.0215 7.2959C29.6025 7.2959 28.9815 7.3379 28.3945 7.5369L28.1985 7.6029C27.4585 7.8519 26.7595 8.0879 25.7815 8.6719C25.4955 8.8429 25.1825 9.0379 24.8475 9.2559C23.3335 8.8809 21.7045 8.6899 19.9995 8.6899C18.2775 8.6899 16.6345 8.8819 15.1105 9.2609C14.7715 9.0409 14.4565 8.8439 14.1685 8.6719C13.1905 8.0879 12.4915 7.8529 11.7515 7.6029L11.5555 7.5369C10.9705 7.3379 10.3485 7.2959 9.92953 7.2959C9.62753 7.2959 9.42853 7.3169 9.42853 7.3169L9.12653 7.3489L8.82653 7.3799L8.71453 7.6609L8.60153 7.9439C8.59153 7.9699 8.36853 8.5379 8.18253 9.3349L8.15553 9.4499C7.98553 10.1689 7.77453 11.0649 7.96253 12.4329C8.01053 12.7789 8.08753 13.1179 8.19253 13.4439C6.90753 15.1099 6.25653 17.0899 6.25653 19.3339C6.25653 25.0289 9.00453 28.3619 14.6535 29.5039C14.4595 29.8919 14.3085 30.3019 14.2015 30.7279C14.0045 30.7949 13.8235 30.8399 13.6635 30.8649C13.4255 30.9009 13.1765 30.9189 12.9245 30.9189C12.2385 30.9189 11.6995 30.7849 11.4895 30.6599C11.1765 30.4739 10.6175 29.9329 10.0755 29.1419C9.61253 28.4669 8.89053 27.5839 8.08353 27.2149C7.38553 26.8959 6.64653 26.7129 6.05453 26.7129C5.91653 26.7129 5.78953 26.7229 5.67853 26.7409C5.16153 26.8229 4.72953 27.1069 4.49453 27.5209C4.29153 27.8779 4.25953 28.2939 4.40653 28.6619C4.62553 29.2099 5.25753 29.6469 5.74953 29.9169C5.99153 30.0499 6.51453 30.5359 6.81953 31.0259C7.04853 31.3939 7.15453 31.6559 7.30153 32.0179C7.38853 32.2329 7.48453 32.4669 7.61453 32.7499C8.08453 33.7719 9.55153 34.6739 9.71753 34.7729C10.5235 35.2559 11.8785 35.4109 12.8745 35.4559L12.9975 35.4589H12.9985C13.2385 35.4589 13.5685 35.4359 14.0025 35.3879V38.0009C14.0045 38.5299 13.4655 38.6499 12.7525 38.6389L13.2995 38.8229C15.3945 39.5719 17.6445 39.9999 19.9995 39.9999C22.3545 39.9999 24.6045 39.5719 26.7025 38.8239L27.4055 38.5619C26.6945 38.5379 26.0155 38.4219 26.0095 37.9959Z" fill="black"/>
<path opacity="0.07" d="M26.7815 38.7969C26.3755 38.8439 25.5005 38.6879 25.5005 38.0019V32.1979C25.5005 31.1039 25.1725 30.0469 24.5645 29.1459C30.4795 28.1889 33.2435 25.0529 33.2435 19.3339C33.2435 17.0969 32.5575 15.1399 31.2045 13.5119C31.3415 13.1469 31.4375 12.7619 31.4925 12.3649C31.6675 11.0889 31.4765 10.2789 31.3085 9.5639L31.2815 9.4479C31.1035 8.6869 30.8935 8.1509 30.8845 8.1289L30.7735 7.8469L30.4705 7.8149C30.4705 7.8149 30.2925 7.7959 30.0215 7.7959C29.6405 7.7959 29.0775 7.8329 28.5555 8.0109L28.3595 8.0769C27.6455 8.3179 26.9705 8.5449 26.0385 9.1009C25.7065 9.2989 25.3365 9.5319 24.9375 9.7949C23.4045 9.3939 21.7455 9.1899 20.0005 9.1899C18.2385 9.1899 16.5655 9.3949 15.0215 9.7999C14.6185 9.5349 14.2465 9.3009 13.9125 9.1009C12.9805 8.5449 12.3055 8.3169 11.5915 8.0769L11.3955 8.0109C10.8745 7.8339 10.3105 7.7959 9.92948 7.7959C9.65848 7.7959 9.48048 7.8149 9.48048 7.8149L9.17848 7.8469L9.06548 8.1299C9.05648 8.1519 8.84648 8.6879 8.66848 9.4489L8.64148 9.5649C8.47248 10.2799 8.28148 11.0889 8.45748 12.3649C8.51348 12.7719 8.61348 13.1659 8.75548 13.5389C7.42848 15.1589 6.75648 17.1059 6.75648 19.3339C6.75648 25.0369 9.52248 28.1719 15.4425 29.1399C15.0475 29.7299 14.7715 30.3949 14.6295 31.1039C14.2995 31.2339 14.0005 31.3199 13.7385 31.3599C13.4755 31.3999 13.2015 31.4199 12.9245 31.4199C12.2345 31.4199 11.5715 31.2909 11.2345 31.0909C10.7945 30.8299 10.1775 30.1769 9.66248 29.4259C9.31248 28.9159 8.61548 28.0089 7.87448 27.6709C7.23948 27.3809 6.57648 27.2139 6.05348 27.2139C5.94348 27.2139 5.84348 27.2219 5.75548 27.2359C5.38948 27.2939 5.08748 27.4879 4.92748 27.7699C4.79948 27.9939 4.77848 28.2529 4.86848 28.4779C5.04748 28.9259 5.71048 29.3279 5.98748 29.4799C6.32248 29.6639 6.90648 30.2239 7.24148 30.7639C7.49248 31.1679 7.61148 31.4609 7.76248 31.8309C7.84748 32.0399 7.94048 32.2679 8.06648 32.5429C8.39748 33.2619 9.41948 34.0149 9.97148 34.3459C10.7255 34.7979 12.1255 34.9239 12.8935 34.9579L13.0045 34.9599C13.3035 34.9599 13.8045 34.9149 14.4995 34.8249V38.0019C14.4995 38.7809 13.5085 38.8119 13.2655 38.8119C13.2345 38.8119 13.7685 38.9959 13.7685 38.9959C15.7315 39.6399 17.8225 39.9999 20.0005 39.9999C22.1785 39.9999 24.2695 39.6399 26.2315 38.9969C26.2315 38.9969 26.8125 38.7929 26.7815 38.7969Z" fill="black"/>
<path d="M32.7438 19.334C32.7438 17.024 31.9618 15.108 30.6268 13.606C30.7718 13.281 30.9228 12.845 30.9978 12.297C31.1698 11.047 30.9668 10.297 30.7948 9.56302C30.6228 8.82902 30.4198 8.31302 30.4198 8.31302C30.4198 8.31302 29.4978 8.21902 28.7168 8.48502C27.9358 8.75102 27.2638 8.95402 26.2948 9.53202C25.8418 9.80202 25.3858 10.098 25.0248 10.338C23.4818 9.91002 21.7848 9.69002 19.9998 9.69002C18.1988 9.69002 16.4868 9.91102 14.9328 10.342C14.5708 10.101 14.1118 9.80302 13.6558 9.53102C12.6868 8.95302 12.0148 8.75002 11.2338 8.48402C10.4528 8.21802 9.53079 8.31202 9.53079 8.31202C9.53079 8.31202 9.32779 8.82802 9.15579 9.56202C8.98379 10.296 8.78079 11.046 8.95279 12.296C9.02979 12.858 9.18579 13.302 9.33479 13.629C8.02479 15.122 7.25679 17.026 7.25679 19.333C7.25679 25.316 10.4888 28.047 16.3778 28.768C15.6908 29.494 15.2298 30.424 15.0748 31.459C14.6878 31.629 14.2418 31.789 13.8128 31.853C12.7088 32.02 11.5418 31.853 10.9798 31.52C10.4178 31.187 9.75079 30.437 9.25079 29.707C8.82879 29.091 8.21979 28.376 7.66779 28.124C6.93879 27.791 6.22979 27.666 5.83479 27.728C5.43879 27.791 5.25179 28.082 5.33479 28.291C5.41779 28.499 5.81379 28.812 6.23079 29.041C6.64779 29.27 7.29379 29.895 7.66879 30.499C8.08679 31.173 8.16879 31.562 8.52279 32.332C8.77179 32.874 9.62379 33.551 10.2308 33.915C10.7518 34.228 11.7928 34.406 12.9188 34.457C13.3078 34.475 14.2268 34.361 15.0018 34.251V38.001C15.0018 38.64 14.4168 39.126 13.8108 39.014C15.7558 39.668 17.8328 40 19.9998 40C22.1658 40 24.2428 39.668 26.1898 39.016C25.5848 39.127 24.9998 38.641 24.9998 38.002V32.198C24.9998 30.869 24.4728 29.668 23.6268 28.773C29.4728 28.071 32.7438 25.405 32.7438 19.334ZM7.23879 28.727C7.08479 28.648 7.00179 28.502 7.05379 28.399C7.10579 28.296 7.27379 28.277 7.42779 28.356C7.58179 28.435 7.66479 28.581 7.61279 28.684C7.56079 28.787 7.39279 28.806 7.23879 28.727ZM8.45079 29.482C8.36979 29.57 8.19579 29.542 8.06179 29.42C7.92779 29.298 7.88479 29.127 7.96579 29.039C8.04679 28.951 8.22079 28.979 8.35479 29.101C8.48879 29.223 8.53179 29.394 8.45079 29.482ZM9.20479 30.732C9.10279 30.804 8.92979 30.737 8.81879 30.582C8.70779 30.427 8.70079 30.242 8.80279 30.17C8.90479 30.098 9.07779 30.165 9.18879 30.32C9.29879 30.475 9.30679 30.66 9.20479 30.732ZM10.2878 31.673C10.2188 31.785 10.0228 31.79 9.85079 31.685C9.67879 31.58 9.59479 31.404 9.66379 31.292C9.73279 31.18 9.92879 31.175 10.1008 31.28C10.2728 31.385 10.3568 31.561 10.2878 31.673ZM11.3118 32.594C11.0988 32.568 10.9408 32.435 10.9588 32.297C10.9758 32.159 11.1628 32.069 11.3748 32.095C11.5878 32.121 11.7458 32.254 11.7278 32.392C11.7108 32.529 11.5248 32.62 11.3118 32.594ZM12.9628 32.833C12.7358 32.82 12.5588 32.69 12.5678 32.544C12.5768 32.398 12.7678 32.289 12.9948 32.302C13.2218 32.315 13.3988 32.445 13.3898 32.591C13.3808 32.738 13.1898 32.846 12.9628 32.833ZM14.5208 32.677C14.2788 32.677 14.0828 32.551 14.0828 32.396C14.0828 32.241 14.2788 32.115 14.5208 32.115C14.7628 32.115 14.9588 32.241 14.9588 32.396C14.9588 32.551 14.7618 32.677 14.5208 32.677Z" fill="#F5F5F5"/>
</g>
<defs>
<filter id="filter0_i" x="0" y="0" width="40" height="44" filterUnits="userSpaceOnUse" color-interpolation-filters="sRGB">
<feFlood flood-opacity="0" result="BackgroundImageFix"/>
<feBlend mode="normal" in="SourceGraphic" in2="BackgroundImageFix" result="shape"/>
<feColorMatrix in="SourceAlpha" type="matrix" values="0 0 0 0 0 0 0 0 0 0 0 0 0 0 0 0 0 0 127 0" result="hardAlpha"/>
<feOffset dy="4"/>
<feGaussianBlur stdDeviation="2"/>
<feComposite in2="hardAlpha" operator="arithmetic" k2="-1" k3="1"/>
<feColorMatrix type="matrix" values="0 0 0 0 0 0 0 0 0 0 0 0 0 0 0 0 0 0 0.25 0"/>
<feBlend mode="normal" in2="shape" result="effect1_innerShadow"/>
</filter>
</defs>
</svg>
