<svg width="512" height="513" viewBox="0 0 512 513" fill="none" xmlns="http://www.w3.org/2000/svg">
<g filter="url(#filter0_d)">
<path d="M130.752 46.6357C130.752 40.0083 136.125 34.6357 142.752 34.6357H256.317H369.883C376.51 34.6357 381.883 40.0083 381.883 46.6357V418.358V466.764C381.883 473.392 376.51 478.764 369.883 478.764H142.752C136.125 478.764 130.752 473.392 130.752 466.764V256.7V46.6357Z" fill="#D6FFDA"/>
<path d="M367.995 34.6357H313.738C299.166 34.6357 290.951 60.5971 296.317 74.0668C300.587 84.7838 300.649 96.8258 292.772 109.424C274.701 138.326 244.096 138.326 220.872 142.187C209.362 144.1 212.36 153.879 223.977 154.983C260.248 158.428 301.384 169.616 292.772 197.444C278.884 242.318 279.463 313.654 319.968 311.928C350.961 310.608 372.779 277.605 380.864 259.129C381.566 257.526 381.883 255.802 381.883 254.054V48.4428C381.883 40.8174 375.665 34.6357 367.995 34.6357Z" fill="#D6FFDA"/>
<path d="M130.752 270.79V469.206C130.752 474.799 134.623 479.766 140.209 480.062C158.548 481.034 183.408 473.738 183.408 438.493C183.408 431.186 196.602 341.095 197.648 333.862C199.381 321.88 203.122 310.124 207.711 300.998C218.852 278.845 194.042 259.807 175.816 250.72C171.979 248.806 167.487 249.587 163.696 251.588C157.574 254.82 150.913 256.431 144.799 257.032C137.445 257.754 130.752 263.4 130.752 270.79Z" fill="#FFD6D6"/>
<path d="M183.408 226.209C193.245 188.815 177.622 175.583 194.981 153.722C199.031 148.621 200.915 139.34 220.441 139.34C232.002 139.34 212.359 153.879 223.976 154.983C260.248 158.428 301.384 169.616 292.771 197.444C278.884 242.317 279.463 313.654 319.968 311.928C350.961 310.608 372.778 277.605 380.864 259.129C381.565 257.526 381.882 255.802 381.882 254.054V410.803C381.882 415.42 379.251 419.654 374.941 421.31C361.415 426.507 337.821 432.925 314.76 431.015C280.041 428.138 285.828 387.867 236.064 390.744C186.301 393.62 192.088 332.064 207.711 300.998C216.511 283.5 202.88 267.944 187.781 257.702C180.136 252.516 178.365 239.956 181.736 231.355C182.371 229.736 182.931 228.022 183.408 226.209Z" fill="#89A3FF"/>
<path d="M369.883 34.6356H306.191C293.584 34.6356 286.736 56.5436 293.073 67.4422C300.204 79.7071 302.317 94.1571 292.772 109.424C273.708 139.915 240.694 138.239 217.113 142.864C207.203 144.807 210.065 153.828 220.131 154.644C257.262 157.654 301.691 168.627 292.772 197.444C278.885 242.317 279.463 313.654 319.968 311.928C351.132 310.6 373.019 277.239 380.997 258.824C381.604 257.423 381.883 255.915 381.883 254.388V46.6356C381.883 40.0082 376.51 34.6356 369.883 34.6356Z" fill="#FFE589"/>
<path d="M253.43 34.6357H142.752C136.125 34.6357 130.752 40.0083 130.752 46.6357V246.48C130.752 252.37 135.048 257.481 140.934 257.285C156.307 256.775 177.11 250.152 183.408 226.209C193.245 188.815 177.622 175.583 194.981 153.722C212.341 131.861 266.154 151.996 292.772 109.424C313.231 76.7013 280.131 47.7315 258.857 35.986C257.196 35.0687 255.328 34.6357 253.43 34.6357Z" fill="#FF6161"/>
</g>
<g filter="url(#filter1_d)">
<path d="M181.483 24.199C182.97 17.7405 189.413 13.697 195.876 15.1675L306.575 40.3572L417.275 65.547C423.737 67.0175 427.77 73.4452 426.284 79.9037L342.867 442.26L332.004 489.449C330.517 495.908 324.073 499.951 317.611 498.481L96.2118 448.101C89.7496 446.631 85.7162 440.203 87.2029 433.745L134.343 228.972L181.483 24.199Z" fill="#D6FFDA"/>
<path d="M415.438 65.1291L362.548 53.094C348.344 49.8617 334.51 73.3465 336.718 87.6669C338.475 99.0609 335.834 110.813 325.328 121.347C301.227 145.512 271.393 138.723 247.889 137.335C236.239 136.647 236.967 146.845 248.044 150.497C282.628 161.901 320.216 181.932 305.576 207.148C281.969 247.81 266.525 317.477 306.396 324.779C336.904 330.367 365.578 303.035 377.606 286.818C378.649 285.411 379.345 283.801 379.738 282.097L425.877 81.6686C427.589 74.2354 422.915 66.8304 415.438 65.1291Z" fill="#D6FFDA"/>
<path d="M131.181 242.704L86.654 436.126C85.3993 441.576 88.0594 447.275 93.4389 448.803C111.098 453.818 136.967 452.219 144.876 417.864C146.516 410.739 179.591 325.855 182.234 319.035C186.612 307.737 192.898 297.104 199.421 289.225C215.25 270.103 195.343 246.044 179.616 233.142C176.303 230.424 171.745 230.188 167.598 231.299C160.909 233.09 154.058 233.182 147.965 232.412C140.632 231.485 132.839 235.503 131.181 242.704Z" fill="#FFD6D6"/>
<path d="M192.515 210.93C210.496 176.661 198.236 160.297 220.063 142.837C225.156 138.763 229.075 130.134 248.109 134.465C259.378 137.029 236.968 146.845 248.045 150.498C282.629 161.902 320.217 181.932 305.577 207.149C281.97 247.811 266.526 317.478 306.397 324.78C336.906 330.367 365.579 303.036 377.607 286.819C378.651 285.412 379.346 283.802 379.739 282.098L344.563 434.9C343.527 439.398 340.013 442.94 335.44 443.598C321.088 445.664 296.649 446.687 274.597 439.709C241.4 429.204 256.077 391.232 206.923 382.998C157.768 374.763 177.222 316.042 199.423 289.224C211.93 274.117 202.128 255.927 189.705 242.593C183.418 235.844 184.508 223.218 189.724 215.587C190.708 214.146 191.641 212.596 192.515 210.93Z" fill="#89A3FF"/>
<path d="M417.274 65.5471L355.179 51.4175C342.888 48.6207 331.299 68.4423 335.034 80.467C339.242 94.0111 338.065 108.575 325.327 121.347C299.9 146.842 268.091 137.882 244.066 137.161C233.968 136.858 234.737 146.285 244.368 149.314C279.888 160.484 320.736 181.035 305.575 207.149C281.968 247.81 266.524 317.477 306.395 324.779C337.073 330.398 365.895 302.731 377.804 286.549C378.709 285.319 379.319 283.912 379.661 282.425L426.283 79.9038C427.769 73.4453 423.736 67.0176 417.274 65.5471Z" fill="#FFE589"/>
<path d="M303.758 39.7163L195.876 15.1675C189.413 13.697 182.97 17.7405 181.483 24.199L136.635 219.013C135.314 224.753 138.356 230.686 144.139 231.801C159.239 234.713 181.003 232.871 192.514 210.93C210.495 176.66 198.234 160.296 220.062 142.837C241.889 125.377 289.828 156.941 325.328 121.347C352.614 93.9876 326.851 58.4069 308.749 42.2381C307.335 40.9745 305.61 40.1376 303.758 39.7163Z" fill="#FF6161"/>
</g>
<g filter="url(#filter2_d)">
<path d="M240.982 12.0955C244.031 6.2111 251.281 3.89727 257.175 6.92741L358.039 58.7812L458.904 110.635C464.798 113.665 467.105 120.892 464.056 126.776L292.822 457.24L270.518 500.285C267.469 506.169 260.219 508.483 254.325 505.453L52.5958 401.746C46.7017 398.715 44.3953 391.489 47.4444 385.604L144.213 198.85L240.982 12.0955Z" fill="#D6FFDA"/>
<path d="M457.24 109.78L409.045 85.0026C396.101 78.3482 376.845 97.6757 375.407 112.1C374.263 123.577 368.771 134.311 355.971 141.913C326.606 159.354 299.42 145.378 277.013 138.205C265.907 134.65 264.066 144.712 273.876 150.998C304.509 170.624 335.895 199.355 315.426 220.161C282.421 253.71 250.075 317.391 286.85 334.353C314.988 347.333 349.571 327.957 365.263 315.225C366.625 314.12 367.7 312.732 368.506 311.179L463.216 128.396C466.729 121.617 464.053 113.282 457.24 109.78Z" fill="#D6FFDA"/>
<path d="M137.568 211.283L46.0239 387.625C43.4478 392.588 44.6016 398.761 49.4326 401.573C65.281 410.797 90.7343 415.645 106.991 384.329C110.366 377.829 163.627 303.825 167.895 297.868C174.966 288.002 183.72 279.251 192.015 273.229C212.127 258.629 198.879 230.414 186.879 214.025C184.345 210.565 179.979 209.205 175.675 209.253C168.76 209.33 162.113 207.729 156.412 205.481C149.533 202.768 140.973 204.723 137.568 211.283Z" fill="#FFD6D6"/>
<path d="M204.92 195.688C230.912 166.944 223.132 148.062 248.643 136.551C254.595 133.866 260.551 126.477 277.902 135.381C288.175 140.652 264.013 144.616 273.827 150.893C304.47 170.494 335.863 199.193 315.372 219.995C282.331 253.538 249.937 317.193 286.727 334.13C314.877 347.088 349.49 327.71 365.198 314.978C366.56 313.874 367.637 312.487 368.444 310.933L296.127 450.239C294.001 454.334 289.715 456.89 285.121 456.396C270.704 454.847 246.776 449.792 227.164 437.578C197.639 419.19 221.358 386.043 175.811 365.908C130.263 345.773 163.802 293.711 192.016 273.229C207.918 261.685 202.964 241.628 194.261 225.636C189.861 217.55 194.062 205.62 201.019 199.536C202.344 198.376 203.646 197.097 204.92 195.688Z" fill="#89A3FF"/>
<path d="M458.986 110.473L402.359 81.4154C391.148 75.6628 374.98 91.9478 375.605 104.507C376.312 118.693 371.538 132.541 355.976 141.777C324.961 160.184 296.39 143.626 273.299 136.987C263.59 134.196 261.986 143.516 270.559 148.834C302.168 168.439 336.592 198.451 315.372 219.994C282.331 253.537 249.937 317.192 286.727 334.128C315.036 347.16 349.88 327.489 365.461 314.762C366.644 313.796 367.584 312.588 368.286 311.236L464.134 126.602C467.187 120.72 464.883 113.499 458.986 110.473Z" fill="#FFE589"/>
<path d="M355.466 57.4582L257.175 6.92741C251.281 3.89727 244.031 6.21108 240.982 12.0955L148.913 189.779C146.204 195.007 147.671 201.508 152.996 204.024C166.887 210.588 188.411 214.195 205.031 195.791C230.994 167.04 223.211 148.143 248.701 136.636C274.191 125.129 312.718 167.603 355.971 141.913C389.214 122.169 373.163 81.3065 359.678 61.148C358.622 59.5694 357.157 58.3277 355.466 57.4582Z" fill="#FF6161"/>
</g>
<g filter="url(#filter3_d)">
<path d="M300.945 14.9127C305.299 9.91627 312.899 9.37235 317.92 13.6978L403.728 87.6138L489.536 161.53C494.558 165.855 495.099 173.412 490.744 178.408L245.895 459.372L213.994 495.978C209.64 500.975 202.039 501.519 197.018 497.193L25.402 349.361C20.3807 345.036 19.8399 337.479 24.1941 332.483L162.569 173.698L300.945 14.9127Z" fill="#D6FFDA"/>
<path d="M488.132 160.32L447.126 124.997C436.112 115.51 412.805 129.783 407.989 143.456C404.157 154.336 396.273 163.477 382.022 167.871C349.328 177.95 326.197 158.024 306.103 145.823C296.143 139.775 291.968 149.118 300.021 157.515C325.166 183.733 348.887 218.969 324.049 234.395C283.998 259.268 237.45 313.559 269.2 338.625C293.493 357.805 331.72 347.066 350 338.366C351.585 337.611 352.96 336.515 354.112 335.194L489.534 179.797C494.557 174.034 493.929 165.314 488.132 160.32Z" fill="#D6FFDA"/>
<path d="M153.306 184.329L22.5833 334.332C18.9116 338.545 18.5782 344.81 22.6119 348.676C35.8335 361.347 59.4225 372.007 82.6308 345.375C87.4536 339.841 156.699 280.404 162.263 275.606C171.474 267.661 182.064 261.196 191.558 257.281C214.551 247.799 208.365 217.295 200.584 198.558C198.937 194.591 195.001 192.238 190.795 191.273C184.073 189.732 178.005 186.629 173.005 183.12C166.95 178.87 158.163 178.755 153.306 184.329Z" fill="#FFD6D6"/>
<path d="M222.448 184.937C254.512 163.08 251.419 142.908 278.937 137.687C285.358 136.469 292.895 130.681 307.652 143.393C316.389 150.92 291.968 149.12 300.021 157.517C325.165 183.735 348.886 218.972 324.048 234.397C283.997 259.27 237.45 313.562 269.199 338.628C293.493 357.807 331.719 347.069 349.999 338.369C351.585 337.614 352.96 336.518 354.111 335.197L250.848 453.691C247.82 457.165 243.056 458.642 238.708 457.087C225.062 452.209 203.001 441.7 186.829 425.24C162.484 400.463 193.381 373.795 153.876 343.571C114.372 313.347 159.288 270.591 191.557 257.283C209.757 249.778 209.676 229.103 204.992 211.517C202.627 202.636 209.506 192.058 217.694 187.791C219.274 186.968 220.86 186.02 222.448 184.937Z" fill="#89A3FF"/>
<path d="M489.538 161.531L441.35 120.022C431.808 111.802 412.278 123.793 409.941 136.136C407.29 150.132 399.377 162.522 382.023 167.872C347.513 178.511 323.658 155.719 302.782 143.868C294.001 138.883 290.25 147.569 297.329 154.746C323.413 181.195 349.774 218.421 324.05 234.396C283.999 259.269 237.452 313.561 269.202 338.627C293.635 357.917 332.162 346.943 350.315 338.217C351.688 337.557 352.884 336.606 353.883 335.46L490.746 178.41C495.1 173.414 494.559 165.857 489.538 161.531Z" fill="#FFE589"/>
<path d="M401.531 85.721L317.92 13.6978C312.899 9.37235 305.299 9.91627 300.945 14.9127L169.279 165.999C165.411 170.437 165.305 177.089 169.893 180.78C181.849 190.398 201.927 198.924 222.448 184.935C254.512 163.077 251.419 142.905 278.938 137.685C306.456 132.464 333.865 182.717 382.022 167.871C419.029 156.462 413.103 113.034 404.764 90.3032C404.109 88.5182 402.975 86.965 401.531 85.721Z" fill="#FF6161"/>
</g>
<g filter="url(#filter4_d)">
<path d="M361.966 35.2966C367.477 31.6154 374.953 33.0825 378.664 38.5736L441.972 132.254L505.28 225.933C508.99 231.425 507.531 238.86 502.02 242.542L191.638 449.875L151.185 476.898C145.674 480.579 138.198 479.112 134.487 473.621L7.87172 286.261C4.16089 280.77 5.62017 273.334 11.1311 269.653L186.549 152.475L361.966 35.2966Z" fill="#D6FFDA"/>
<path d="M504.254 224.415L473.995 179.64C465.868 167.614 439.612 175.313 431.359 187.254C424.793 196.754 414.774 203.521 399.863 204.046C365.656 205.252 348.587 179.995 332.412 162.983C324.396 154.551 317.903 162.479 323.461 172.681C340.813 204.535 354.414 244.722 326.377 253.135C281.169 266.7 221.934 306.961 245.964 339.425C264.351 364.266 304.072 363.865 324.007 360.234C325.736 359.919 327.352 359.219 328.811 358.244L500.471 243.576C506.838 239.323 508.531 230.745 504.254 224.415Z" fill="#D6FFDA"/>
<path d="M174.817 160.311L9.08569 271.019C4.44095 274.122 2.47554 280.077 5.35229 284.863C14.7721 300.535 34.7242 316.963 64.1388 297.315C70.2594 293.226 152.709 253.941 159.35 250.755C170.343 245.48 182.28 241.996 192.484 240.69C217.163 237.534 219.245 206.511 216.681 186.4C216.137 182.128 212.946 178.817 209.13 176.781C203.068 173.546 198.044 168.985 194.152 164.309C189.418 158.622 180.966 156.203 174.817 160.311Z" fill="#FFD6D6"/>
<path d="M241.37 178.925C278.076 166.189 280.409 145.916 308.342 148.05C314.86 148.548 323.659 144.927 334.548 161.04C340.996 170.581 317.902 162.479 323.46 172.682C340.812 204.536 354.413 244.723 326.376 253.135C281.168 266.7 221.933 306.962 245.963 339.426C264.351 364.266 304.072 363.866 324.006 360.234C325.735 359.919 327.351 359.219 328.811 358.245L197.898 445.694C194.07 448.251 189.092 448.43 185.306 445.797C173.424 437.534 154.904 421.641 143.637 401.542C126.676 371.286 163.524 353.603 133.37 314.14C103.216 274.677 157.835 245.123 192.484 240.69C212.042 238.189 217.408 218.186 217.517 199.983C217.572 190.804 226.955 182.419 235.963 180.455C237.725 180.071 239.528 179.565 241.37 178.925Z" fill="#89A3FF"/>
<path d="M505.28 225.935L469.699 173.285C462.652 162.857 440.704 169.286 435.227 180.585C428.988 193.455 418.074 203.406 399.863 204.048C363.742 205.321 346.732 177.089 329.704 160.213C322.538 153.112 316.645 160.523 321.587 169.3C339.787 201.623 355.416 244.423 326.377 253.136C281.169 266.701 221.934 306.963 245.964 339.427C264.46 364.414 304.543 363.861 324.358 360.17C325.852 359.892 327.25 359.289 328.511 358.447L502.02 242.543C507.531 238.862 508.991 231.426 505.28 225.935Z" fill="#FFE589"/>
<path d="M440.344 129.844L378.664 38.5736C374.953 33.0825 367.477 31.6154 361.966 35.2966L195.036 146.805C190.143 150.074 188.296 156.464 191.755 161.226C200.759 173.622 217.883 187.075 241.371 178.925C278.076 166.188 280.41 145.916 308.343 148.05C336.275 150.183 349.476 205.822 399.863 204.046C438.579 202.682 444.315 159.241 442.263 135.129C442.101 133.229 441.414 131.428 440.344 129.844Z" fill="#FF6161"/>
</g>
<g filter="url(#filter5_d)">
<path d="M409.005 64.6559C415.197 62.2923 422.151 65.388 424.539 71.5704L465.224 176.92L505.91 282.269C508.298 288.452 505.214 295.38 499.022 297.743L149.925 431.008L104.416 448.381C98.2245 450.744 91.2696 447.648 88.882 441.466L7.51103 230.767C5.12341 224.585 8.20717 217.657 14.3988 215.293L211.702 139.975L409.005 64.6559Z" fill="#D6FFDA"/>
<path d="M505.255 280.574L485.807 230.215C480.583 216.69 453.261 218.371 442.537 228.18C434.005 235.984 422.72 240.358 408.067 237.563C374.451 231.15 363.48 202.744 351.531 182.573C345.608 172.576 337.501 178.863 340.629 190.041C350.395 224.941 354.635 267.132 325.417 269.113C278.304 272.309 211.528 298.416 227.668 335.392C240.017 363.685 278.827 372.105 299.073 372.987C300.83 373.064 302.562 372.74 304.203 372.113L497.269 298.413C504.429 295.679 508.004 287.693 505.255 280.574Z" fill="#D6FFDA"/>
<path d="M198.517 145.008L12.0971 216.172C6.88062 218.164 3.63438 223.532 5.36626 228.839C11.0332 246.205 26.7959 266.639 59.8753 254.012C66.7649 251.382 155.916 231.386 163.111 229.75C175.018 227.042 187.445 226.292 197.692 227.283C222.449 229.68 231.443 199.92 233.461 179.748C233.891 175.452 231.517 171.505 228.247 168.666C223.076 164.175 219.209 158.627 216.467 153.215C213.122 146.614 205.428 142.37 198.517 145.008Z" fill="#FFD6D6"/>
<path d="M259.206 177.919C297.845 173.645 304.669 154.401 331.419 162.677C337.66 164.608 347.051 163.03 354.05 181.153C358.194 191.883 337.5 178.863 340.628 190.041C350.395 224.941 354.635 267.132 325.417 269.114C278.304 272.309 211.528 298.416 227.667 335.392C240.017 363.685 278.826 372.105 299.073 372.987C300.83 373.064 302.562 372.74 304.203 372.114L156.953 428.325C152.655 429.966 147.77 429.035 144.67 425.628C134.941 414.938 120.454 395.338 113.981 373.245C104.237 339.99 144.125 330.926 123.586 285.769C103.048 240.612 162.922 223.918 197.693 227.283C217.33 229.184 227.049 210.855 231.236 193.125C233.346 184.195 244.34 178.116 253.544 178.21C255.363 178.228 257.25 178.135 259.206 177.919Z" fill="#89A3FF"/>
<path d="M505.91 282.27L483.031 223.028C478.499 211.293 455.71 212.666 447.859 222.468C438.886 233.668 425.999 240.984 408.067 237.563C372.562 230.791 362.319 199.483 349.503 179.257C344.108 170.742 336.71 176.666 339.56 186.323C350.049 221.869 355.681 267.062 325.417 269.114C278.305 272.309 211.528 298.417 227.668 335.393C240.091 363.856 279.294 372.206 299.437 373.003C300.951 373.063 302.445 372.785 303.859 372.246L499.022 297.744C505.214 295.38 508.298 288.452 505.91 282.27Z" fill="#FFE589"/>
<path d="M464.175 174.202L424.539 71.5704C422.151 65.388 415.197 62.2923 409.005 64.6559L221.235 136.336C215.739 138.434 212.51 144.254 214.816 149.667C220.813 163.746 234.486 180.653 259.207 177.918C297.845 173.645 304.669 154.401 331.419 162.677C358.169 170.953 358.551 228.118 408.067 237.563C446.109 244.82 461.449 203.754 464.862 179.794C465.132 177.902 464.865 175.988 464.175 174.202Z" fill="#FF6161"/>
</g>
<g filter="url(#filter6_d)">
<path d="M452.291 107.011C458.875 106.254 464.834 110.977 465.599 117.56L478.639 229.653L491.678 341.746C492.444 348.329 487.727 354.279 481.143 355.036L109.665 397.75L61.2317 403.319C54.6477 404.076 48.6895 399.353 47.9237 392.77L21.8452 168.584C21.0794 162.001 25.796 156.051 32.3801 155.294L242.336 131.153L452.291 107.011Z" fill="#D6FFDA"/>
<path d="M491.469 339.95L485.236 286.363C483.561 271.971 456.678 266.841 443.836 273.688C433.619 279.136 421.594 280.581 408.101 274.249C377.148 259.722 373.631 229.495 367.106 207.002C363.872 195.854 354.445 199.938 354.678 211.538C355.403 247.757 348.95 289.67 320.155 284.361C273.724 275.801 202.514 284.568 208.892 324.374C213.772 354.832 249.254 372.588 268.644 378.451C270.326 378.959 272.084 379.075 273.831 378.874L479.269 355.252C486.888 354.376 492.35 347.525 491.469 339.95Z" fill="#D6FFDA"/>
<path d="M228.312 132.765L29.9293 155.576C24.3835 156.214 19.8997 160.611 20.2494 166.182C21.393 184.402 31.5467 208.091 66.744 204.044C74.0791 203.2 165.407 205.889 172.789 206.083C185.004 206.405 197.235 208.753 206.916 212.25C230.29 220.693 246.447 194.107 253.452 175.069C254.946 171.009 253.633 166.59 251.174 163.025C247.296 157.403 244.941 151.081 243.64 145.167C242.05 137.941 235.662 131.92 228.312 132.765Z" fill="#FFD6D6"/>
<path d="M278.85 179.655C317.343 185.074 328.769 168.124 352.606 182.757C358.168 186.171 367.658 186.965 369.901 206.25C371.23 217.668 354.445 199.938 354.678 211.539C355.403 247.757 348.95 289.67 320.155 284.361C273.725 275.801 202.514 284.568 208.892 324.374C213.773 354.832 249.254 372.588 268.644 378.451C270.326 378.96 272.085 379.075 273.831 378.874L117.134 396.891C112.566 397.417 108.072 395.307 105.922 391.241C99.175 378.48 90.0487 355.912 89.3082 332.912C88.1935 298.292 129.095 299.38 120.504 250.563C111.913 201.746 174.082 200.389 206.917 212.25C225.467 218.951 239.471 203.589 247.963 187.447C252.238 179.322 264.384 176.157 273.263 178.528C275.03 179 276.891 179.379 278.85 179.655Z" fill="#89A3FF"/>
<path d="M491.678 341.745L484.343 278.69C482.89 266.197 460.508 261.882 450.464 269.438C438.963 278.089 424.634 282.007 408.101 274.248C375.403 258.903 373.322 226.038 365.969 203.277C362.873 193.694 354.229 197.606 354.573 207.668C355.836 244.692 349.982 289.859 320.155 284.36C273.724 275.8 202.514 284.567 208.892 324.373C213.802 355.016 249.686 372.802 268.995 378.556C270.444 378.987 271.958 379.088 273.46 378.916L481.143 355.035C487.727 354.278 492.444 348.328 491.678 341.745Z" fill="#FFE589"/>
<path d="M478.302 226.756L465.599 117.56C464.834 110.977 458.875 106.254 452.291 107.011L252.471 129.987C246.627 130.659 242.047 135.499 242.927 141.315C245.212 156.434 254.225 176.188 278.85 179.655C317.343 185.074 328.769 168.124 352.606 182.757C376.443 197.39 362.507 252.851 408.101 274.249C443.129 290.687 468.263 254.714 477.567 232.351C478.302 230.583 478.523 228.659 478.302 226.756Z" fill="#FF6161"/>
</g>
<defs>
<filter id="filter0_d" x="126.752" y="30.6356" width="259.131" height="453.508" filterUnits="userSpaceOnUse" color-interpolation-filters="sRGB">
<feFlood flood-opacity="0" result="BackgroundImageFix"/>
<feColorMatrix in="SourceAlpha" type="matrix" values="0 0 0 0 0 0 0 0 0 0 0 0 0 0 0 0 0 0 127 0"/>
<feOffset/>
<feGaussianBlur stdDeviation="2"/>
<feColorMatrix type="matrix" values="0 0 0 0 0 0 0 0 0 0 0 0 0 0 0 0 0 0 0.25 0"/>
<feBlend mode="normal" in2="BackgroundImageFix" result="effect1_dropShadow"/>
<feBlend mode="normal" in="SourceGraphic" in2="effect1_dropShadow" result="shape"/>
</filter>
<filter id="filter1_d" x="82.3472" y="10.8655" width="348.245" height="491.917" filterUnits="userSpaceOnUse" color-interpolation-filters="sRGB">
<feFlood flood-opacity="0" result="BackgroundImageFix"/>
<feColorMatrix in="SourceAlpha" type="matrix" values="0 0 0 0 0 0 0 0 0 0 0 0 0 0 0 0 0 0 127 0"/>
<feOffset/>
<feGaussianBlur stdDeviation="2"/>
<feColorMatrix type="matrix" values="0 0 0 0 0 0 0 0 0 0 0 0 0 0 0 0 0 0 0.25 0"/>
<feBlend mode="normal" in2="BackgroundImageFix" result="effect1_dropShadow"/>
<feBlend mode="normal" in="SourceGraphic" in2="effect1_dropShadow" result="shape"/>
</filter>
<filter id="filter2_d" x="40.6873" y="1.59521" width="428.795" height="509.19" filterUnits="userSpaceOnUse" color-interpolation-filters="sRGB">
<feFlood flood-opacity="0" result="BackgroundImageFix"/>
<feColorMatrix in="SourceAlpha" type="matrix" values="0 0 0 0 0 0 0 0 0 0 0 0 0 0 0 0 0 0 127 0"/>
<feOffset/>
<feGaussianBlur stdDeviation="2"/>
<feColorMatrix type="matrix" values="0 0 0 0 0 0 0 0 0 0 0 0 0 0 0 0 0 0 0.25 0"/>
<feBlend mode="normal" in2="BackgroundImageFix" result="effect1_dropShadow"/>
<feBlend mode="normal" in="SourceGraphic" in2="effect1_dropShadow" result="shape"/>
</filter>
<filter id="filter3_d" x="15.707" y="6.77847" width="481.981" height="497.334" filterUnits="userSpaceOnUse" color-interpolation-filters="sRGB">
<feFlood flood-opacity="0" result="BackgroundImageFix"/>
<feColorMatrix in="SourceAlpha" type="matrix" values="0 0 0 0 0 0 0 0 0 0 0 0 0 0 0 0 0 0 127 0"/>
<feOffset/>
<feGaussianBlur stdDeviation="2"/>
<feColorMatrix type="matrix" values="0 0 0 0 0 0 0 0 0 0 0 0 0 0 0 0 0 0 0.25 0"/>
<feBlend mode="normal" in2="BackgroundImageFix" result="effect1_dropShadow"/>
<feBlend mode="normal" in="SourceGraphic" in2="effect1_dropShadow" result="shape"/>
</filter>
<filter id="filter4_d" x="0.00732422" y="29.2678" width="511.325" height="453.659" filterUnits="userSpaceOnUse" color-interpolation-filters="sRGB">
<feFlood flood-opacity="0" result="BackgroundImageFix"/>
<feColorMatrix in="SourceAlpha" type="matrix" values="0 0 0 0 0 0 0 0 0 0 0 0 0 0 0 0 0 0 127 0"/>
<feOffset/>
<feGaussianBlur stdDeviation="2"/>
<feColorMatrix type="matrix" values="0 0 0 0 0 0 0 0 0 0 0 0 0 0 0 0 0 0 0.25 0"/>
<feBlend mode="normal" in2="BackgroundImageFix" result="effect1_dropShadow"/>
<feBlend mode="normal" in="SourceGraphic" in2="effect1_dropShadow" result="shape"/>
</filter>
<filter id="filter5_d" x="0.897217" y="59.8624" width="509.821" height="393.312" filterUnits="userSpaceOnUse" color-interpolation-filters="sRGB">
<feFlood flood-opacity="0" result="BackgroundImageFix"/>
<feColorMatrix in="SourceAlpha" type="matrix" values="0 0 0 0 0 0 0 0 0 0 0 0 0 0 0 0 0 0 127 0"/>
<feOffset/>
<feGaussianBlur stdDeviation="2"/>
<feColorMatrix type="matrix" values="0 0 0 0 0 0 0 0 0 0 0 0 0 0 0 0 0 0 0.25 0"/>
<feBlend mode="normal" in2="BackgroundImageFix" result="effect1_dropShadow"/>
<feBlend mode="normal" in="SourceGraphic" in2="effect1_dropShadow" result="shape"/>
</filter>
<filter id="filter6_d" x="16.2302" y="102.931" width="479.529" height="304.467" filterUnits="userSpaceOnUse" color-interpolation-filters="sRGB">
<feFlood flood-opacity="0" result="BackgroundImageFix"/>
<feColorMatrix in="SourceAlpha" type="matrix" values="0 0 0 0 0 0 0 0 0 0 0 0 0 0 0 0 0 0 127 0"/>
<feOffset/>
<feGaussianBlur stdDeviation="2"/>
<feColorMatrix type="matrix" values="0 0 0 0 0 0 0 0 0 0 0 0 0 0 0 0 0 0 0.25 0"/>
<feBlend mode="normal" in2="BackgroundImageFix" result="effect1_dropShadow"/>
<feBlend mode="normal" in="SourceGraphic" in2="effect1_dropShadow" result="shape"/>
</filter>
</defs>
</svg>
