<svg width="30" height="30" viewBox="0 0 30 30" fill="none" xmlns="http://www.w3.org/2000/svg">
<g filter="url(#filter0_i)">
<path d="M22.5007 15C22.5007 11.9726 20.8007 9.37286 18.334 8.10718V21.8757C20.8007 20.6271 22.5007 18.0274 22.5007 15Z" fill="#B6B6B6"/>
<path d="M18.334 0V3.52337C23.1507 4.9943 26.6673 9.57811 26.6673 15C26.6673 20.4219 23.1507 25.0057 18.334 26.4766V30C25.0173 28.4436 30.0007 22.3204 30.0007 15C30.0007 7.67959 25.0173 1.55644 18.334 0Z" fill="#B6B6B6"/>
<path fill-rule="evenodd" clip-rule="evenodd" d="M0 20.1313V9.86902H6.66667L15 1.31714V28.6832L6.66667 20.1313H0ZM11.6673 20.4219V9.57812L8.05065 13.2896H3.33398V16.7104H8.05065L11.6673 20.4219Z" fill="#B6B6B6"/>
</g>
<defs>
<filter id="filter0_i" x="0" y="0" width="30.0007" height="34" filterUnits="userSpaceOnUse" color-interpolation-filters="sRGB">
<feFlood flood-opacity="0" result="BackgroundImageFix"/>
<feBlend mode="normal" in="SourceGraphic" in2="BackgroundImageFix" result="shape"/>
<feColorMatrix in="SourceAlpha" type="matrix" values="0 0 0 0 0 0 0 0 0 0 0 0 0 0 0 0 0 0 127 0" result="hardAlpha"/>
<feOffset dy="4"/>
<feGaussianBlur stdDeviation="2"/>
<feComposite in2="hardAlpha" operator="arithmetic" k2="-1" k3="1"/>
<feColorMatrix type="matrix" values="0 0 0 0 0 0 0 0 0 0 0 0 0 0 0 0 0 0 0.25 0"/>
<feBlend mode="normal" in2="shape" result="effect1_innerShadow"/>
</filter>
</defs>
</svg>
